<?xml version="1.0" encoding="UTF-8" standalone="no"?>
<!-- Created with Inkscape (http://www.inkscape.org/) -->

<svg
   xmlns:dc="http://purl.org/dc/elements/1.1/"
   xmlns:cc="http://creativecommons.org/ns#"
   xmlns:rdf="http://www.w3.org/1999/02/22-rdf-syntax-ns#"
   xmlns:svg="http://www.w3.org/2000/svg"
   xmlns="http://www.w3.org/2000/svg"
   xmlns:xlink="http://www.w3.org/1999/xlink"
   xmlns:sodipodi="http://sodipodi.sourceforge.net/DTD/sodipodi-0.dtd"
   xmlns:inkscape="http://www.inkscape.org/namespaces/inkscape"
   width="640px"
   height="480px"
   id="svg2816"
   version="1.1"
   inkscape:version="0.47 r22583"
   sodipodi:docname="parallax_background.svg">
  <sodipodi:namedview
     id="base"
     pagecolor="#ffffff"
     bordercolor="#666666"
     borderopacity="1.0"
     inkscape:pageopacity="0.0"
     inkscape:pageshadow="2"
     inkscape:zoom="0.8142306"
     inkscape:cx="485.84059"
     inkscape:cy="46.078818"
     inkscape:current-layer="layer1"
     inkscape:document-units="px"
     showgrid="false"
     inkscape:window-width="1680"
     inkscape:window-height="988"
     inkscape:window-x="-8"
     inkscape:window-y="-8"
     inkscape:window-maximized="1" />
  <defs
     id="defs2818">
    <linearGradient
       id="linearGradient3989">
      <stop
         id="stop3991"
         offset="0"
         style="stop-color:#000000;stop-opacity:1;" />
      <stop
         id="stop3993"
         offset="1"
         style="stop-color:#e45a14;stop-opacity:1;" />
    </linearGradient>
    <inkscape:perspective
       id="perspective2824"
       inkscape:persp3d-origin="320 : 160 : 1"
       inkscape:vp_z="640 : 240 : 1"
       inkscape:vp_y="0 : 1000 : 0"
       inkscape:vp_x="0 : 240 : 1"
       sodipodi:type="inkscape:persp3d" />
    <inkscape:perspective
       sodipodi:type="inkscape:persp3d"
       inkscape:vp_x="0 : 0.5 : 1"
       inkscape:vp_y="0 : 1000 : 0"
       inkscape:vp_z="1 : 0.5 : 1"
       inkscape:persp3d-origin="0.5 : 0.33333333 : 1"
       id="perspective2834" />
    <inkscape:perspective
       sodipodi:type="inkscape:persp3d"
       inkscape:vp_x="0 : 0.5 : 1"
       inkscape:vp_y="0 : 1000 : 0"
       inkscape:vp_z="1 : 0.5 : 1"
       inkscape:persp3d-origin="0.5 : 0.33333333 : 1"
       id="perspective3654" />
    <linearGradient
       gradientUnits="userSpaceOnUse"
       y2="398.94189"
       x2="320"
       y1="0"
       x1="320"
       id="linearGradient3995"
       xlink:href="#linearGradient3989"
       inkscape:collect="always" />
  </defs>
  <metadata
     id="metadata2821">
    <rdf:RDF>
      <cc:Work
         rdf:about="">
        <dc:format>image/svg+xml</dc:format>
        <dc:type
           rdf:resource="http://purl.org/dc/dcmitype/StillImage" />
      </cc:Work>
    </rdf:RDF>
  </metadata>
  <g
     inkscape:groupmode="layer"
     inkscape:label="Layer 1"
     id="layer1"
     style="display:inline">
    <rect
       y="2.1316282e-14"
       x="0"
       height="480"
       width="640"
       id="rect3987"
       style="fill:url(#linearGradient3995);fill-opacity:1;fill-rule:nonzero;stroke:none" />
    <path
       sodipodi:nodetypes="ccccc"
       id="rect3644"
       d="m 0,397.37366 c 260.16416,5.50951 510.94622,-23.26906 640,0 L 640,480 0,480 0,397.37366 z"
       style="fill:#994e2b;fill-opacity:1;stroke:none" />
    <path
       style="fill:#ffb380;fill-opacity:1;stroke:none"
       d="m 227.98391,413.89118 c 114.58204,-1.38805 247.10622,-7.39602 267.32184,0 0,0 60.89064,-1.77742 34.76865,12.72034 -26.12198,14.49775 -250.46095,10.08502 -293.96426,0 -43.50332,-10.08502 -8.12623,-12.72034 -8.12623,-12.72034 0,0 0,0 0,0"
       id="path3997"
       sodipodi:nodetypes="czzzzz" />
    <path
       sodipodi:nodetypes="csssssssscccsssscccssssssssssssssssssssssssssssssssssscccsssccccccssscccssscccsccccsscc"
       style="fill:#6e1900"
       d="m 62.189463,418.48718 c -23.48165,-1.17099 -25.46542,-1.41472 -27.56444,-3.38664 -2.09293,-1.96621 -3.35208,-2.12485 -16.86555,-2.12485 -8.03207,0 -15.31557,-0.27314 -16.18555,-0.60699 -1.8178,-0.69755 -2.17279,-5.90972 -0.474,-6.95963 0.60928,-0.37655 8.66788,-0.6041 17.908,-0.50565 10.87797,0.11589 17.02971,-0.19233 17.45123,-0.87437 0.44628,-0.7221 -4.79232,-1.05818 -16.658,-1.06867 -9.51996,-0.008 -17.88752,-0.38237 -18.59457,-0.83099 -0.94896,-0.60211 -1.40075027,-3.66669 -1.18997027,-11.7049 L -0.0235006,379.53525 4.737623,378.69751 c 4.5944,-0.90658 4.42024,-0.59272 5.93428,-10.69438 0.81592,-5.44383 0.84648,-5.48221 5.82023,-7.31085 2.75,-1.01106 5.53266,-2.37341 6.18368,-3.02744 0.65103,-0.65403 1.67678,-5.01415 2.27944,-9.68915 2.00617,-15.56221 2.37906,-16.13735 8.73965,-13.47972 l 3.59098,1.5004 -0.66455,9.45393 c -0.3655,5.19965 -0.90694,10.0856 -1.2032,10.85764 -0.33395,0.87025 0.76517,2.17301 2.89206,3.4279 2.83091,1.67028 3.65062,2.96091 4.68848,7.38201 1.97804,8.42613 2.1297,8.56811 9.99576,9.35807 7.91905,0.79528 9.4202,0.13727 10.35549,-4.53916 0.39364,-1.96821 1.46282,-3.32257 3.12051,-3.95282 3.20035,-1.21677 3.20427,-2.7595 0.0584,-22.95924 -1.32347,-8.49804 -2.18409,-15.81054 -1.91249,-16.25 0.2716,-0.43946 1.4105,-0.79901 2.53089,-0.79901 1.12039,0 4.51382,-0.72001 7.54096,-1.60002 3.80471,-1.10606 5.82444,-1.27947 6.54222,-0.5617 0.57108,0.57109 1.53859,9.55007 2.15002,19.95331 1.10778,18.84839 1.88349,22.20841 5.12715,22.20841 1.56105,0 2.48454,2.23863 2.48454,6.02277 0,3.43201 1.2803,4.43277 3.88654,3.03795 1.419,-0.75943 2.24656,-2.94926 3.13521,-8.29624 1.42883,-8.59714 2.208497,-9.78728 6.350687,-9.69419 5.77053,0.12968 7.04501,1.22143 8.13493,6.9686 0.91713,4.83597 1.31231,5.41681 4.1933,6.16335 2.87193,0.74419 3.24321,1.28411 3.8241,5.56099 0.94151,6.93201 1.38383,8.07299 3.37463,8.70484 0.9884,0.31371 2.31588,1.70901 2.94997,3.10068 1.10877,2.43348 1.392,2.50425 7.40176,1.84925 7.4109,-0.80771 9.74887,-1.84333 9.74887,-4.31833 0,-1.00647 0.9,-2.97412 2,-4.37254 1.98324,-2.52128 2.5337,-7.13373 1.36971,-11.47713 -0.46519,-1.73586 -1.3304,-2.25 -3.78634,-2.25 -1.75085,0 -3.72337,-0.54 -4.38337,-1.2 -3.02152,-3.02152 0.39151,-16.93046 4.45784,-18.16684 4.42928,-1.34672 20.25545,-2.69497 24.60839,-2.09641 5.38798,0.74089 6.20129,1.72852 7.26495,8.82213 0.67988,4.5342 0.54053,5.00881 -2.08541,7.10266 -2.74617,2.18972 -2.79147,2.38589 -1.87987,8.14112 0.82834,5.22965 1.21715,5.93523 3.4341,6.23202 1.375,0.18407 2.84484,0.66391 3.26631,1.06631 1.13172,1.0805 5.70683,18.15262 5.72127,21.34901 l 0.0124,2.75 -37,0 c -20.35,0 -37,0.23945 -37,0.53212 0,0.29266 0.68091,2.16176 1.51313,4.15354 0.83222,1.99178 1.24319,3.88983 0.91327,4.21788 -0.32992,0.32805 -4.22822,0.59646 -8.66288,0.59646 l -8.063007,0 -1.18311,3.5 c -1.45017,4.2901 0.42464,4.14441 -32.32006,2.51149 l 2e-5,0 z m 28.80267,-6.95247 c 0,-4.08861 -0.0962,-4.16374 -6.5,-5.0785 -3.45196,-0.4931 -4.69039,-0.39227 -4,0.32568 0.55,0.57195 2.35,1.18703 4,1.36685 2.57159,0.28026 3.04475,0.79106 3.31336,3.57695 0.44024,4.56598 3.18664,4.40138 3.18664,-0.19098 z m 13.942297,-7.93224 c -1.51516,-2.56801 -2.84084,-3.62678 -4.54108,-3.62678 -3.386097,0 -2.984887,1.90057 0.67019,3.17474 1.79132,0.62445 3.5081,2.16568 4.1192,3.69798 0.57628,1.445 1.23763,2.12183 1.46966,1.50406 0.23203,-0.61778 -0.54105,-2.75528 -1.71797,-4.75 z M 86.992133,375.03471 c 0,-1.35037 -1.82294,-2.28649 -3.01631,-1.54894 -0.55897,0.34546 -0.75742,1.04702 -0.44098,1.55902 0.75067,1.21461 3.45729,1.20672 3.45729,-0.0101 l 0,2e-5 z m -8.50331,-43.07407 c -0.66499,-3.02769 -0.90833,-3.17983 -4.22506,-2.6416 -4.49437,0.72933 -4.83409,1.12677 -3.48815,4.08078 0.70765,1.55313 2.12212,2.56085 3.91244,2.78737 3.80545,0.48149 4.63277,-0.43851 3.80077,-4.22655 z"
       id="path2846" />
    <path
       sodipodi:nodetypes="ccccccsssssssssssssssscccsssssssssssssssssssssssccccccssssssssssssssssssssssssssssssccccccc"
       style="fill:#0a0201"
       d="m 0,468.1726 0,-11.8272 8.6314924,-1.1939 C 50.458445,449.3663 79.64767,452.338 116.23429,466.1064 l 11.00361,4.1409 14.76432,-3.2845 c 8.12039,-1.8065 14.76434,-3.6422 14.76434,-4.0794 0,-0.4372 -1.02441,-2.4126 -2.27646,-4.3898 -2.48847,-3.9297 -4.63849,-12.5411 -4.11806,-16.4939 0.28674,-2.1779 0.79696,-2.5 3.95999,-2.5 3.76292,0 4.45843,0.6554 6.16588,5.8102 0.51196,1.5456 1.30221,2.5642 1.75612,2.2635 0.45393,-0.3006 -0.17944,-4.2652 -1.40749,-8.8101 -5.02911,-18.6127 -4.83624,-16.6697 -1.92139,-19.3566 6.39157,-5.8918 11.38744,-4.0022 13.97555,5.286 1.88653,6.7703 3.5441,8.2187 6.1769,5.3972 1.519,-1.6278 1.61509,-2.4482 0.7573,-6.4654 -0.84935,-3.9776 -0.75227,-4.8736 0.71653,-6.6129 3.4705,-4.1096 6.68338,-1.875 9.32848,6.4881 2.00303,6.3332 2.15085,10.8396 0.42881,13.0734 -0.74197,0.9625 -3.51496,2.7783 -6.16219,4.035 -2.64723,1.2568 -5.09731,2.7778 -5.44461,3.38 -0.34729,0.6022 0.25606,4.2261 1.34077,8.0532 l 1.97222,6.9584 4.87209,-0.084 c 6.51087,-0.1128 15.3754,-1.3382 16.21889,-2.2421 0.943,-1.0106 5.04758,-40.7689 4.4304,-42.9143 -0.47708,-1.6584 -2.22323,-2.3511 -14.52087,-5.7611 -2.75513,-0.7639 -5.4839,-2.4697 -7.46507,-4.6663 -3.06534,-3.3988 -3.11893,-3.6108 -2.92241,-11.5677 0.34203,-13.8483 2.90339,-23.5302 6.81907,-25.776 1.44056,-0.8262 2.82632,-0.6168 6.05949,0.9159 5.34112,2.5319 6.29378,5.0414 4.91974,12.9594 -0.89295,5.1456 -0.82172,6.3466 0.50512,8.5167 1.65192,2.7019 7.55105,4.5982 9.10926,2.9284 0.48352,-0.5182 1.42712,-5.8154 2.0969,-11.7716 1.14542,-10.1861 1.3948,-10.9989 4.19812,-13.6831 2.47384,-2.3688 3.81046,-2.8536 7.86459,-2.8523 5.62524,0 10.44486,2.2721 13.11627,6.1785 1.83215,2.6791 1.83178,2.6872 -1.1047,23.8375 -1.6156,11.6366 -2.70064,21.5681 -2.41121,22.07 1.83622,3.1839 5.08179,-2.0465 5.08179,-8.1897 0,-1.542 0.47779,-3.9275 1.06175,-5.301 1.83823,-4.3235 10.3884,-6.1652 13.1947,-2.8421 2.19096,2.5945 2.87112,10.7646 1.64692,19.7828 -1.5745,11.5988 -2.5461,14.1767 -6.40105,16.9839 -2.83777,2.0665 -4.51207,2.4786 -10.07124,2.4786 -4.58667,0 -7.00709,0.4383 -7.75525,1.4044 -0.59818,0.7724 -1.17448,4.7099 -1.28067,8.75 l -0.19307,7.3456 26.59433,0.6172 c 32.0014,0.7427 39.438,1.5495 83.19128,9.0259 l 23.93726,4.0903 c 40.83667,20.5997 84.62686,-34.0036 122.68021,-19.7289 3.40249,1.3725 7.20118,2.4954 8.4416,2.4954 1.24051,0 5.71769,-2.2304 9.94926,-4.9565 4.23167,-2.726 11.50041,-6.5778 16.15284,-8.5595 13.18109,-5.6147 12.40602,-4.1807 10.3995,-19.2403 -0.93397,-7.009 -1.88241,-13.0812 -2.10777,-13.4937 -0.22534,-0.4125 -4.89895,-0.7542 -10.38578,-0.7594 -9.33218,-0.01 -10.28594,-0.1998 -14.77552,-2.9593 -6.28019,-3.8601 -8.22493,-7.5352 -10.07077,-19.0313 -3.42879,-21.3553 -2.84624,-35.5992 1.55918,-38.1259 2.88655,-1.6555 10.8349,-1.4122 14.97755,0.4585 4.39171,1.9833 5.80904,5.3822 6.7181,16.1104 0.71992,8.496 2.41878,12.557 5.25308,12.557 2.52441,0 2.35561,-2.3827 -2.44425,-34.5 -2.30148,-15.4 -4.18689,-29.171 -4.18977,-30.6021 -0.0186,-9.4255 16.36176,-18.2531 27.76485,-14.9625 4.02582,1.1617 8.93234,4.9487 10.51334,8.1144 0.5038,1.0088 1.54228,8.0478 2.30773,15.6422 2.00308,19.8719 1.51952,18.6462 7.12822,18.0687 6.94318,-0.715 9.7407,-4.0224 9.45116,-11.174 -0.11953,-2.9514 -0.64443,-6.5701 -1.16642,-8.0416 -0.52209,-1.4714 -0.94919,-4.5054 -0.94919,-6.7421 0,-3.358 0.57342,-4.6464 3.28986,-7.3919 4.18577,-4.2306 12.00244,-7.0157 15.55731,-5.5431 1.3845,0.5735 3.12871,2.0753 3.87606,3.3374 3.09856,5.2329 7.13707,28.3325 7.13707,40.8226 0,10.8065 -7.19017,18.4808 -19.59582,20.915 -8.04492,1.5786 -18.45068,4.8803 -19.13821,6.0725 -0.56035,0.9717 2.42578,31.7493 4.31603,44.4845 0.57145,3.85 1.43945,7.5332 1.92897,8.1848 0.57575,0.7665 3.94371,1.167 9.53785,1.1344 21.42597,-0.125 36.29472,6.3844 56.37552,24.6808 l 6.58512,6 0.0579,13.75 L 640,480 4.1330263e-4,480 l 0,-11.8271 -3.73251985e-4,-3e-4 z"
       id="path2842" />
    <path
       id="rect3687"
       d="M 0,99.999783 C 0,86.666296 15.116105,126.02708 53.313895,126.02708 91.511685,126.02708 212.01705,80 255.99974,80 c 43.98269,0 -1.08959,39.94803 42.89319,39.94803 43.98277,0 111.1414,-31.983629 194.00194,-2.6053 C 575.75541,146.72105 599.55684,71.459025 640,99.999893 c 40.44316,28.540867 59.28551,65.307617 0,39.999567 -59.28551,-25.30805 -64.61235,21.42893 -107.1569,25.23714 -42.54455,3.8082 -40.59593,-36.4743 -84.57862,-36.4743 -43.98269,0 -166.51846,26.05307 -210.50124,26.05307 -43.98277,0 53.54493,-46.56694 0.52761,-50.36926 C 185.27353,100.64379 34.737421,166.59238 0,140.00024 -34.322624,113.72564 0,113.33327 0,99.999783 z"
       style="fill:#c33809;fill-opacity:1;fill-rule:nonzero;stroke:none"
       sodipodi:nodetypes="cczzzzzzzzzzz" />
    <path
       style="fill:#ffeeaa;fill-opacity:1;fill-rule:nonzero;stroke:#ff9955;stroke-width:5;stroke-miterlimit:4;stroke-opacity:1;stroke-dasharray:none"
       d="m 507.31853,39.228242 c -1.44066,36.231538 -33.9933,71.059678 -80.10485,66.527098 -46.11157,-4.53258 -72.1122,-43.320217 -70.67154,-79.551754 1.44067,-36.231548 33.9933,-71.059679 80.10487,-66.527099 46.11156,4.53258 72.11219,43.3202072 70.67152,79.551755 0,0 0,0 0,0"
       id="path3780" />
    <path
       style="fill:#ffb8b8;fill-opacity:0.25096525;fill-rule:nonzero;stroke:none"
       d="m 254.15625,84.03125 c -40.69111,3.387329 -79.50309,17.84532 -118.82703,27.93232 -27.50055,7.64678 -55.224431,16.65651 -83.89172,18.13018 -19.08596,-0.2822 -36.526733,-12.40877 -48.34375,-25.5 -2.4937983,7.39512 -12.8969091,9.01537 -14.21875,16.84375 2.9287042,8.47027 11.04350164,13.95622 18.5625,18 18.912143,6.31608 39.138194,1.16782 58.21875,-1.8125 53.95078,-10.24582 105.86065,-30.82001 160.625,-37 10.18207,-0.57892 22.38189,-1.306184 30.28125,6.15625 5.22854,7.42405 -1.56254,16.06129 -6.71875,21.4375 -6.19272,7.2663 -15.7788,13.28573 -19.40625,21.84375 13.83951,1.82298 28.3147,-0.91848 42.30091,-1.99621 50.17981,-6.28315 100.09549,-16.08013 150.37723,-21.69706 17.39127,-1.27312 36.37149,-4.50723 52.14519,4.84478 15.09122,7.19728 23.57255,23.80818 40.17667,28.59849 17.50276,5.42458 35.82914,-1.8765 49.83877,-12.58667 12.19707,-8.85798 25.23039,-18.63787 41.09873,-18.53833 19.61224,-1.6514 36.64192,9.7156 54.75,14.59375 3.88266,0.4479 8.94989,2.20129 12.40625,0.15625 0.17481,-7.48266 -6.87508,-13.13539 -11.0625,-18.8125 -9.46893,-10.11675 -20.37699,-19.50316 -32.90625,-25.8125 -16.32303,-5.123987 -31.11245,6.239 -44.71875,13.53125 -20.67808,11.50817 -44.80271,18.99247 -68.625,15 -22.09978,-3.56425 -42.59719,-13.95697 -64.98683,-16.25553 -41.84674,-6.37132 -84.16099,2.51688 -125.35692,10.06803 -14.94023,2.16962 -31.84743,6.01593 -45.84375,-1.53125 -8.26464,-6.19602 -6.69469,-17.47147 -6.53125,-26.5 -0.7322,-7.279388 -8.76096,-9.29498 -14.96875,-9.0625 -1.45677,-0.0952 -2.91679,-0.07161 -4.375,-0.03125 z"
       id="path4177" />
  </g>
</svg>
