<?xml version="1.0" encoding="UTF-8" standalone="no"?>
<!-- Created with Inkscape (http://www.inkscape.org/) -->

<svg
   xmlns:dc="http://purl.org/dc/elements/1.1/"
   xmlns:cc="http://creativecommons.org/ns#"
   xmlns:rdf="http://www.w3.org/1999/02/22-rdf-syntax-ns#"
   xmlns:svg="http://www.w3.org/2000/svg"
   xmlns="http://www.w3.org/2000/svg"
   xmlns:xlink="http://www.w3.org/1999/xlink"
   xmlns:sodipodi="http://sodipodi.sourceforge.net/DTD/sodipodi-0.dtd"
   xmlns:inkscape="http://www.inkscape.org/namespaces/inkscape"
   width="640px"
   height="480px"
   id="svg2816"
   version="1.1"
   inkscape:version="0.47 r22583"
   sodipodi:docname="parallax_background_layer_back.svg"
   inkscape:export-filename="E:\android\AndEngineExamples\assets\gfx\parallax_background_layer_back.png"
   inkscape:export-xdpi="90"
   inkscape:export-ydpi="90">
  <sodipodi:namedview
     id="base"
     pagecolor="#ffffff"
     bordercolor="#666666"
     borderopacity="1.0"
     inkscape:pageopacity="0.0"
     inkscape:pageshadow="2"
     inkscape:zoom="0.63596295"
     inkscape:cx="900.65173"
     inkscape:cy="168.87855"
     inkscape:current-layer="layer1"
     inkscape:document-units="px"
     showgrid="false"
     inkscape:window-width="1680"
     inkscape:window-height="988"
     inkscape:window-x="-8"
     inkscape:window-y="-8"
     inkscape:window-maximized="1" />
  <defs
     id="defs2818">
    <linearGradient
       id="linearGradient3989">
      <stop
         id="stop3991"
         offset="0"
         style="stop-color:#000000;stop-opacity:1;" />
      <stop
         id="stop3993"
         offset="1"
         style="stop-color:#e45a14;stop-opacity:1;" />
    </linearGradient>
    <inkscape:perspective
       id="perspective2824"
       inkscape:persp3d-origin="320 : 160 : 1"
       inkscape:vp_z="640 : 240 : 1"
       inkscape:vp_y="0 : 1000 : 0"
       inkscape:vp_x="0 : 240 : 1"
       sodipodi:type="inkscape:persp3d" />
    <inkscape:perspective
       sodipodi:type="inkscape:persp3d"
       inkscape:vp_x="0 : 0.5 : 1"
       inkscape:vp_y="0 : 1000 : 0"
       inkscape:vp_z="1 : 0.5 : 1"
       inkscape:persp3d-origin="0.5 : 0.33333333 : 1"
       id="perspective2834" />
    <inkscape:perspective
       sodipodi:type="inkscape:persp3d"
       inkscape:vp_x="0 : 0.5 : 1"
       inkscape:vp_y="0 : 1000 : 0"
       inkscape:vp_z="1 : 0.5 : 1"
       inkscape:persp3d-origin="0.5 : 0.33333333 : 1"
       id="perspective3654" />
    <linearGradient
       gradientUnits="userSpaceOnUse"
       y2="398.94189"
       x2="320"
       y1="0"
       x1="320"
       id="linearGradient3995"
       xlink:href="#linearGradient3989"
       inkscape:collect="always" />
    <inkscape:perspective
       id="perspective2830"
       inkscape:persp3d-origin="0.5 : 0.33333333 : 1"
       inkscape:vp_z="1 : 0.5 : 1"
       inkscape:vp_y="0 : 1000 : 0"
       inkscape:vp_x="0 : 0.5 : 1"
       sodipodi:type="inkscape:persp3d" />
  </defs>
  <metadata
     id="metadata2821">
    <rdf:RDF>
      <cc:Work
         rdf:about="">
        <dc:format>image/svg+xml</dc:format>
        <dc:type
           rdf:resource="http://purl.org/dc/dcmitype/StillImage" />
        <dc:title></dc:title>
      </cc:Work>
    </rdf:RDF>
  </metadata>
  <g
     inkscape:groupmode="layer"
     inkscape:label="Layer 1"
     id="layer1"
     style="display:inline">
    <rect
       y="2.1316282e-14"
       x="0"
       height="480"
       width="640"
       id="rect3987"
       style="fill:url(#linearGradient3995);fill-opacity:1;fill-rule:nonzero;stroke:none" />
    <path
       sodipodi:nodetypes="ccccc"
       id="rect3644"
       d="m 0,397.37366 c 260.16416,5.50951 510.94622,-23.26906 640,0 L 640,480 0,480 0,397.37366 z"
       style="fill:#994e2b;fill-opacity:1;stroke:none" />
    <path
       style="fill:#ffb380;fill-opacity:1;stroke:none"
       d="m 227.98391,413.89118 c 114.58204,-1.38805 247.10622,-7.39602 267.32184,0 0,0 60.89064,-1.77742 34.76865,12.72034 -26.12198,14.49775 -250.46095,10.08502 -293.96426,0 -43.50332,-10.08502 -8.12623,-12.72034 -8.12623,-12.72034 0,0 0,0 0,0"
       id="path3997"
       sodipodi:nodetypes="czzzzz" />
    <path
       sodipodi:nodetypes="cssssssssccsssscccssssssssssssssssssssssssssssssssssscccsssccccccssscccssscccsccccsscc"
       style="fill:#6e1900"
       d="m 62.189463,418.48718 c -23.48165,-1.17099 -25.46542,-1.41472 -27.56444,-3.38664 -2.09293,-1.96621 -3.35208,-2.12485 -16.86555,-2.12485 -8.03207,0 -8.4362385,-0.27314 -9.3062185,-0.60699 -1.8178,-0.69755 -2.17279,-5.90972 -0.474,-6.95963 0.60928,-0.37655 1.7885485,-0.6041 11.0286685,-0.50565 10.87797,0.11589 17.02971,-0.19233 17.45123,-0.87437 0.44628,-0.7221 -4.79232,-1.05818 -16.658,-1.06867 -9.51996,-0.008 -17.88752,-0.38237 -18.59457,-0.83099 -0.94896,-0.60211 -1.05329156,-3.66669 -0.84251156,-11.7049 1.37949766,-3.9652 -1.43310724,-9.04333 4.37355156,-11.72698 2.5306005,-0.51348 4.42024,-0.59272 5.93428,-10.69438 0.81592,-5.44383 0.84648,-5.48221 5.82023,-7.31085 2.75,-1.01106 5.53266,-2.37341 6.18368,-3.02744 0.65103,-0.65403 1.67678,-5.01415 2.27944,-9.68915 2.00617,-15.56221 2.37906,-16.13735 8.73965,-13.47972 l 3.59098,1.5004 -0.66455,9.45393 c -0.3655,5.19965 -0.90694,10.0856 -1.2032,10.85764 -0.33395,0.87025 0.76517,2.17301 2.89206,3.4279 2.83091,1.67028 3.65062,2.96091 4.68848,7.38201 1.97804,8.42613 2.1297,8.56811 9.99576,9.35807 7.91905,0.79528 9.4202,0.13727 10.35549,-4.53916 0.39364,-1.96821 1.46282,-3.32257 3.12051,-3.95282 3.20035,-1.21677 3.20427,-2.7595 0.0584,-22.95924 -1.32347,-8.49804 -2.18409,-15.81054 -1.91249,-16.25 0.2716,-0.43946 1.4105,-0.79901 2.53089,-0.79901 1.12039,0 4.51382,-0.72001 7.54096,-1.60002 3.80471,-1.10606 5.82444,-1.27947 6.54222,-0.5617 0.57108,0.57109 1.53859,9.55007 2.15002,19.95331 1.10778,18.84839 1.88349,22.20841 5.12715,22.20841 1.56105,0 2.48454,2.23863 2.48454,6.02277 0,3.43201 1.2803,4.43277 3.88654,3.03795 1.419,-0.75943 2.24656,-2.94926 3.13521,-8.29624 1.42883,-8.59714 2.208497,-9.78728 6.350687,-9.69419 5.77053,0.12968 7.04501,1.22143 8.13493,6.9686 0.91713,4.83597 1.31231,5.41681 4.1933,6.16335 2.87193,0.74419 3.24321,1.28411 3.8241,5.56099 0.94151,6.93201 1.38383,8.07299 3.37463,8.70484 0.9884,0.31371 2.31588,1.70901 2.94997,3.10068 1.10877,2.43348 1.392,2.50425 7.40176,1.84925 7.4109,-0.80771 9.74887,-1.84333 9.74887,-4.31833 0,-1.00647 0.9,-2.97412 2,-4.37254 1.98324,-2.52128 2.5337,-7.13373 1.36971,-11.47713 -0.46519,-1.73586 -1.3304,-2.25 -3.78634,-2.25 -1.75085,0 -3.72337,-0.54 -4.38337,-1.2 -3.02152,-3.02152 0.39151,-16.93046 4.45784,-18.16684 4.42928,-1.34672 20.25545,-2.69497 24.60839,-2.09641 5.38798,0.74089 6.20129,1.72852 7.26495,8.82213 0.67988,4.5342 0.54053,5.00881 -2.08541,7.10266 -2.74617,2.18972 -2.79147,2.38589 -1.87987,8.14112 0.82834,5.22965 1.21715,5.93523 3.4341,6.23202 1.375,0.18407 2.84484,0.66391 3.26631,1.06631 1.13172,1.0805 5.70683,18.15262 5.72127,21.34901 l 0.0124,2.75 -37,0 c -20.35,0 -37,0.23945 -37,0.53212 0,0.29266 0.68091,2.16176 1.51313,4.15354 0.83222,1.99178 1.24319,3.88983 0.91327,4.21788 -0.32992,0.32805 -4.22822,0.59646 -8.66288,0.59646 l -8.063007,0 -1.18311,3.5 c -1.45017,4.2901 0.42464,4.14441 -32.32006,2.51149 l 2e-5,0 z m 28.80267,-6.95247 c 0,-4.08861 -0.0962,-4.16374 -6.5,-5.0785 -3.45196,-0.4931 -4.69039,-0.39227 -4,0.32568 0.55,0.57195 2.35,1.18703 4,1.36685 2.57159,0.28026 3.04475,0.79106 3.31336,3.57695 0.44024,4.56598 3.18664,4.40138 3.18664,-0.19098 z m 13.942297,-7.93224 c -1.51516,-2.56801 -2.84084,-3.62678 -4.54108,-3.62678 -3.386097,0 -2.984887,1.90057 0.67019,3.17474 1.79132,0.62445 3.5081,2.16568 4.1192,3.69798 0.57628,1.445 1.23763,2.12183 1.46966,1.50406 0.23203,-0.61778 -0.54105,-2.75528 -1.71797,-4.75 z M 86.992133,375.03471 c 0,-1.35037 -1.82294,-2.28649 -3.01631,-1.54894 -0.55897,0.34546 -0.75742,1.04702 -0.44098,1.55902 0.75067,1.21461 3.45729,1.20672 3.45729,-0.0101 l 0,2e-5 z m -8.50331,-43.07407 c -0.66499,-3.02769 -0.90833,-3.17983 -4.22506,-2.6416 -4.49437,0.72933 -4.83409,1.12677 -3.48815,4.08078 0.70765,1.55313 2.12212,2.56085 3.91244,2.78737 3.80545,0.48149 4.63277,-0.43851 3.80077,-4.22655 z"
       id="path2846" />
    <path
       style="fill:#ffeeaa;fill-opacity:1;fill-rule:nonzero;stroke:#ff9955;stroke-width:5;stroke-miterlimit:4;stroke-opacity:1;stroke-dasharray:none;display:inline"
       d="m 498.36881,94.980091 c -1.44066,36.231539 -33.9933,71.059679 -80.10485,66.527099 -46.11157,-4.53258 -72.1122,-43.32022 -70.67154,-79.551759 1.44067,-36.23155 33.9933,-71.05968 80.10487,-66.5271 46.11156,4.53258 72.11219,43.32021 70.67152,79.55176 0,0 0,0 0,0"
       id="path3780" />
  </g>
</svg>
