<?xml version="1.0" encoding="UTF-8" standalone="no"?>
<!-- Created with Inkscape (http://www.inkscape.org/) -->

<svg
   xmlns:dc="http://purl.org/dc/elements/1.1/"
   xmlns:cc="http://creativecommons.org/ns#"
   xmlns:rdf="http://www.w3.org/1999/02/22-rdf-syntax-ns#"
   xmlns:svg="http://www.w3.org/2000/svg"
   xmlns="http://www.w3.org/2000/svg"
   xmlns:xlink="http://www.w3.org/1999/xlink"
   xmlns:sodipodi="http://sodipodi.sourceforge.net/DTD/sodipodi-0.dtd"
   xmlns:inkscape="http://www.inkscape.org/namespaces/inkscape"
   width="640px"
   height="480px"
   id="svg2816"
   version="1.1"
   inkscape:version="0.47 r22583"
   sodipodi:docname="parallax_background_layer_front.svg"
   inkscape:export-filename="E:\android\AndEngineExamples\assets\gfx\parallax_background_layer_0.png"
   inkscape:export-xdpi="90"
   inkscape:export-ydpi="90">
  <sodipodi:namedview
     id="base"
     pagecolor="#ffffff"
     bordercolor="#666666"
     borderopacity="1.0"
     inkscape:pageopacity="0.0"
     inkscape:pageshadow="2"
     inkscape:zoom="1.3367848"
     inkscape:cx="372.9153"
     inkscape:cy="-18.785436"
     inkscape:current-layer="layer1"
     inkscape:document-units="px"
     showgrid="false"
     inkscape:window-width="1680"
     inkscape:window-height="988"
     inkscape:window-x="-8"
     inkscape:window-y="-8"
     inkscape:window-maximized="1" />
  <defs
     id="defs2818">
    <linearGradient
       id="linearGradient3989">
      <stop
         id="stop3991"
         offset="0"
         style="stop-color:#000000;stop-opacity:1;" />
      <stop
         id="stop3993"
         offset="1"
         style="stop-color:#e45a14;stop-opacity:1;" />
    </linearGradient>
    <inkscape:perspective
       id="perspective2824"
       inkscape:persp3d-origin="320 : 160 : 1"
       inkscape:vp_z="640 : 240 : 1"
       inkscape:vp_y="0 : 1000 : 0"
       inkscape:vp_x="0 : 240 : 1"
       sodipodi:type="inkscape:persp3d" />
    <inkscape:perspective
       sodipodi:type="inkscape:persp3d"
       inkscape:vp_x="0 : 0.5 : 1"
       inkscape:vp_y="0 : 1000 : 0"
       inkscape:vp_z="1 : 0.5 : 1"
       inkscape:persp3d-origin="0.5 : 0.33333333 : 1"
       id="perspective2834" />
    <inkscape:perspective
       sodipodi:type="inkscape:persp3d"
       inkscape:vp_x="0 : 0.5 : 1"
       inkscape:vp_y="0 : 1000 : 0"
       inkscape:vp_z="1 : 0.5 : 1"
       inkscape:persp3d-origin="0.5 : 0.33333333 : 1"
       id="perspective3654" />
    <linearGradient
       gradientUnits="userSpaceOnUse"
       y2="398.94189"
       x2="320"
       y1="0"
       x1="320"
       id="linearGradient3995"
       xlink:href="#linearGradient3989"
       inkscape:collect="always" />
  </defs>
  <metadata
     id="metadata2821">
    <rdf:RDF>
      <cc:Work
         rdf:about="">
        <dc:format>image/svg+xml</dc:format>
        <dc:type
           rdf:resource="http://purl.org/dc/dcmitype/StillImage" />
        <dc:title />
      </cc:Work>
    </rdf:RDF>
  </metadata>
  <g
     inkscape:groupmode="layer"
     inkscape:label="Layer 1"
     id="layer1"
     style="display:inline">
    <path
       sodipodi:nodetypes="czcccsssssssssssssssscccsssssssssssssssssssssssccccccsssssssssssssssssssssssssssssszcccc"
       style="fill:#0a0201"
       d="m 0,455 c 6.8954977,0 16.17962,1.73092 27.598792,0.1515 11.419173,-1.57942 52.048878,-2.8135 88.635498,10.9549 l 11.00361,4.1409 14.76432,-3.2845 c 8.12039,-1.8065 14.76434,-3.6422 14.76434,-4.0794 0,-0.4372 -1.02441,-2.4126 -2.27646,-4.3898 -2.48847,-3.9297 -4.63849,-12.5411 -4.11806,-16.4939 0.28674,-2.1779 0.79696,-2.5 3.95999,-2.5 3.76292,0 4.45843,0.6554 6.16588,5.8102 0.51196,1.5456 1.30221,2.5642 1.75612,2.2635 0.45393,-0.3006 -0.17944,-4.2652 -1.40749,-8.8101 -5.02911,-18.6127 -4.83624,-16.6697 -1.92139,-19.3566 6.39157,-5.8918 11.38744,-4.0022 13.97555,5.286 1.88653,6.7703 3.5441,8.2187 6.1769,5.3972 1.519,-1.6278 1.61509,-2.4482 0.7573,-6.4654 -0.84935,-3.9776 -0.75227,-4.8736 0.71653,-6.6129 3.4705,-4.1096 6.68338,-1.875 9.32848,6.4881 2.00303,6.3332 2.15085,10.8396 0.42881,13.0734 -0.74197,0.9625 -3.51496,2.7783 -6.16219,4.035 -2.64723,1.2568 -5.09731,2.7778 -5.44461,3.38 -0.34729,0.6022 0.25606,4.2261 1.34077,8.0532 l 1.97222,6.9584 4.87209,-0.084 c 6.51087,-0.1128 15.3754,-1.3382 16.21889,-2.2421 0.943,-1.0106 5.04758,-40.7689 4.4304,-42.9143 -0.47708,-1.6584 -2.22323,-2.3511 -14.52087,-5.7611 -2.75513,-0.7639 -5.4839,-2.4697 -7.46507,-4.6663 -3.06534,-3.3988 -3.11893,-3.6108 -2.92241,-11.5677 0.34203,-13.8483 2.90339,-23.5302 6.81907,-25.776 1.44056,-0.8262 2.82632,-0.6168 6.05949,0.9159 5.34112,2.5319 6.29378,5.0414 4.91974,12.9594 -0.89295,5.1456 -0.82172,6.3466 0.50512,8.5167 1.65192,2.7019 7.55105,4.5982 9.10926,2.9284 0.48352,-0.5182 1.42712,-5.8154 2.0969,-11.7716 1.14542,-10.1861 1.3948,-10.9989 4.19812,-13.6831 2.47384,-2.3688 3.81046,-2.8536 7.86459,-2.8523 5.62524,0 10.44486,2.2721 13.11627,6.1785 1.83215,2.6791 1.83178,2.6872 -1.1047,23.8375 -1.6156,11.6366 -2.70064,21.5681 -2.41121,22.07 1.83622,3.1839 5.08179,-2.0465 5.08179,-8.1897 0,-1.542 0.47779,-3.9275 1.06175,-5.301 1.83823,-4.3235 10.3884,-6.1652 13.1947,-2.8421 2.19096,2.5945 2.87112,10.7646 1.64692,19.7828 -1.5745,11.5988 -2.5461,14.1767 -6.40105,16.9839 -2.83777,2.0665 -4.51207,2.4786 -10.07124,2.4786 -4.58667,0 -7.00709,0.4383 -7.75525,1.4044 -0.59818,0.7724 -1.17448,4.7099 -1.28067,8.75 l -0.19307,7.3456 26.59433,0.6172 c 32.0014,0.7427 39.438,1.5495 83.19128,9.0259 l 23.93726,4.0903 c 40.83667,20.5997 84.62686,-34.0036 122.68021,-19.7289 3.40249,1.3725 7.20118,2.4954 8.4416,2.4954 1.24051,0 5.71769,-2.2304 9.94926,-4.9565 4.23167,-2.726 11.50041,-6.5778 16.15284,-8.5595 13.18109,-5.6147 12.40602,-4.1807 10.3995,-19.2403 -0.93397,-7.009 -1.88241,-13.0812 -2.10777,-13.4937 -0.22534,-0.4125 -4.89895,-0.7542 -10.38578,-0.7594 -9.33218,-0.01 -10.28594,-0.1998 -14.77552,-2.9593 -6.28019,-3.8601 -8.22493,-7.5352 -10.07077,-19.0313 -3.42879,-21.3553 -2.84624,-35.5992 1.55918,-38.1259 2.88655,-1.6555 10.8349,-1.4122 14.97755,0.4585 4.39171,1.9833 5.80904,5.3822 6.7181,16.1104 0.71992,8.496 2.41878,12.557 5.25308,12.557 2.52441,0 2.35561,-2.3827 -2.44425,-34.5 -2.30148,-15.4 -4.18689,-29.171 -4.18977,-30.6021 -0.0186,-9.4255 16.36176,-18.2531 27.76485,-14.9625 4.02582,1.1617 8.93234,4.9487 10.51334,8.1144 0.5038,1.0088 1.54228,8.0478 2.30773,15.6422 2.00308,19.8719 1.51952,18.6462 7.12822,18.0687 6.94318,-0.715 9.7407,-4.0224 9.45116,-11.174 -0.11953,-2.9514 -0.64443,-6.5701 -1.16642,-8.0416 -0.52209,-1.4714 -0.94919,-4.5054 -0.94919,-6.7421 0,-3.358 0.57342,-4.6464 3.28986,-7.3919 4.18577,-4.2306 12.00244,-7.0157 15.55731,-5.5431 1.3845,0.5735 3.12871,2.0753 3.87606,3.3374 3.09856,5.2329 7.13707,28.3325 7.13707,40.8226 0,10.8065 -7.19017,18.4808 -19.59582,20.915 -8.04492,1.5786 -18.45068,4.8803 -19.13821,6.0725 -0.56035,0.9717 2.42578,31.7493 4.31603,44.4845 0.57145,3.85 1.43945,7.5332 1.92897,8.1848 0.57575,0.7665 3.94371,1.16704 9.53785,1.1344 13.37096,-0.078 28.68182,0.6407 36.72029,8.36696 C 621.68237,437.91242 633.03502,456.44001 640,455 l 0,25 L 4.1330263e-4,480 C -16.295217,465.32649 -13.280554,461.28123 0,455 z"
       id="path2842" />
  </g>
</svg>
