<!-- Created with Inkscape (http://www.inkscape.org/) --><svg xmlns:rdf="http://www.w3.org/1999/02/22-rdf-syntax-ns#" xmlns="http://www.w3.org/2000/svg" height="32" width="32" version="1.1" xmlns:cc="http://creativecommons.org/ns#" xmlns:xlink="http://www.w3.org/1999/xlink" xmlns:dc="http://purl.org/dc/elements/1.1/">	<defs>		<linearGradient id="linearGradient3707">			<stop stop-color="#b8b8b8" offset="0"/>			<stop stop-color="#000" offset="1"/>		</linearGradient>		<radialGradient id="radialGradient3329" xlink:href="#linearGradient3707" gradientUnits="userSpaceOnUse" cy="7.6818" cx="45.594" gradientTransform="matrix(1,0,0,1.3883883,0,-3.4105348)" r="2.5747"/>		<radialGradient id="radialGradient3331" xlink:href="#linearGradient3707" gradientUnits="userSpaceOnUse" cy="7.4676" cx="45.594" gradientTransform="matrix(1,0,0,1.3883883,0,-3.4105348)" r="2.5747"/>		<radialGradient id="radialGradient3333" gradientUnits="userSpaceOnUse" cy="11.949" cx="49.469" gradientTransform="matrix(1,0,0,1.4267738,0,-5.6547523)" r="2.5628">			<stop stop-color="#eea6a6" offset="0"/>			<stop stop-color="#b22222" offset="1"/>		</radialGradient>		<linearGradient id="linearGradient3111" y2="60.504" gradientUnits="userSpaceOnUse" x2="16.614" gradientTransform="matrix(0.93490996,0,0,0.97700366,0.42899952,1.7809899)" y1="32.062" x1="16.614">			<stop stop-color="#fffe72" offset="0"/>			<stop stop-color="#fdfc95" offset="0.21206"/>			<stop stop-color="#f8e471" offset="0.5"/>			<stop stop-color="#fad165" offset="0.85397"/>			<stop stop-color="#e5a83d" offset="1"/>		</linearGradient>		<linearGradient id="linearGradient3113" y2="60.504" gradientUnits="userSpaceOnUse" x2="16.164" gradientTransform="matrix(0.97674611,0,0,0.97700366,0.17318387,1.7809899)" y1="32.062" x1="16.164">			<stop stop-color="#fde857" offset="0"/>			<stop stop-color="#f9dd3b" offset="0.29244"/>			<stop stop-color="#f8bc3a" offset="0.75"/>			<stop stop-color="#cf971c" offset="1"/>		</linearGradient>	</defs>	<metadata>		<rdf:RDF>			<cc:Work rdf:about="">				<dc:format>image/svg+xml</dc:format>				<dc:type rdf:resource="http://purl.org/dc/dcmitype/StillImage"/>				<dc:title/>			</cc:Work>		</rdf:RDF>	</metadata>	<g transform="translate(0,-32)">		<path stroke-linejoin="round" d="m8.1879,33.58c-2.8377,0-5.115,2.3088-5.115,5.1473v8.2481l-2.573,5.6124,2.573-0.03101v4.3411c0,1.9528,1.5508,3.5039,3.503,3.5039h1.612,15.562,1.581c1.9523,0,3.534-1.5511,3.534-3.5039v-4.3411l2.635,0.03101-2.635-5.6744v-8.186c0-2.8385-2.2773-5.1473-5.115-5.1473h-15.562z" fill-rule="nonzero" stroke-dashoffset="0" stroke="url(#linearGradient3113)" stroke-linecap="square" stroke-miterlimit="4" stroke-dasharray="none" stroke-width="0.99987864" fill="url(#linearGradient3111)"/>		<path stroke-linejoin="round" d="m47.562,8.7812c0,1.6396-0.88144,2.9688-1.9688,2.9688-1.0873,0-1.9688-1.3292-1.9688-2.9688s0.88144-2.9688,1.9688-2.9688c1.0873,0,1.9688,1.3292,1.9688,2.9688z" fill-rule="nonzero" transform="matrix(0.82470246,0,0,0.81253706,-24.701232,33.948288)" stroke-dashoffset="0" stroke="#fdf886" stroke-linecap="butt" stroke-miterlimit="4" stroke-dasharray="none" stroke-width="1.22145426" fill="url(#radialGradient3329)"/>		<path stroke-linejoin="round" d="m47.562,8.7812c0,1.6396-0.88144,2.9688-1.9688,2.9688-1.0873,0-1.9688-1.3292-1.9688-2.9688s0.88144-2.9688,1.9688-2.9688c1.0873,0,1.9688,1.3292,1.9688,2.9688z" fill-rule="nonzero" transform="matrix(0.82470246,0,0,0.81253706,-18.501325,33.948288)" stroke-dashoffset="0" stroke="#fdf886" stroke-linecap="butt" stroke-miterlimit="4" stroke-dasharray="none" stroke-width="1.22145426" fill="url(#radialGradient3331)"/>		<path stroke-linejoin="round" d="m51.5,13.25c0,1.7259-0.90942,3.125-2.0312,3.125s-2.0312-1.3991-2.0312-3.125,0.90942-3.125,2.0312-3.125,2.0312,1.3991,2.0312,3.125z" fill-rule="nonzero" transform="matrix(0.93096113,0,0,0.93540818,-30.053483,32.813251)" stroke-dashoffset="0" stroke="#fbef7c" stroke-linecap="butt" stroke-miterlimit="4" stroke-dasharray="none" stroke-width="1.07147264" fill="url(#radialGradient3333)"/>		<path stroke-linejoin="miter" d="m26.543,60.153,0,2.1085" stroke="#d1981d" stroke-linecap="butt" stroke-width="0.99987888px" fill="none"/>		<path fill-rule="nonzero" transform="matrix(0.93037393,0,0,0.66911754,21.193548,43.088801)" fill="#b22222" d="m6.9375,31c-0.33588,0.33588-2.0391,0.33588-2.375,0-0.33588-0.33588-0.33588-2.0391,0-2.375,0.33588-0.33588,2.0391-0.33588,2.375,0,0.33588,0.33588,0.33588,2.0391,0,2.375z"/>		<path stroke-linejoin="miter" d="m5.2814,60.153,0,2.1085" stroke="#d0981d" stroke-linecap="butt" stroke-width="0.99987888px" fill="none"/>		<path d="m6.9375,31c-0.33588,0.33588-2.0391,0.33588-2.375,0-0.33588-0.33588-0.33588-2.0391,0-2.375,0.33588-0.33588,2.0391-0.33588,2.375,0,0.33588,0.33588,0.33588,2.0391,0,2.375z" fill-rule="nonzero" transform="matrix(0.93037393,0,0,0.66911754,-0.06821205,43.088801)" fill="#b22222"/>	</g></svg>