<svg xmlns:rdf="http://www.w3.org/1999/02/22-rdf-syntax-ns#" xmlns="http://www.w3.org/2000/svg" height="64" width="64" version="1.1" xmlns:cc="http://creativecommons.org/ns#" xmlns:xlink="http://www.w3.org/1999/xlink" xmlns:dc="http://purl.org/dc/elements/1.1/">	<metadata>		<rdf:RDF>			<cc:Work rdf:about="">				<dc:format>image/svg+xml</dc:format>				<dc:type rdf:resource="http://purl.org/dc/dcmitype/StillImage"/>				<dc:title/>			</cc:Work>		</rdf:RDF>	</metadata>	<defs>		<linearGradient id="linearGradient4300">			<stop stop-color="#b8a57a" offset="0"/>			<stop stop-color="#b48639" offset="0.35722"/>			<stop stop-color="#d2ad70" offset="1"/>		</linearGradient>		<linearGradient id="linearGradient4210">			<stop stop-color="#ed8c8c" offset="0"/>			<stop stop-color="#e35151" offset="0.35722"/>			<stop stop-color="#f6c4c4" offset="1"/>		</linearGradient>		<linearGradient id="linearGradient4091">			<stop stop-color="#52c6c8" offset="0"/>			<stop stop-color="#38aeb0" offset="0.35722"/>			<stop stop-color="#b6e7e8" offset="1"/>		</linearGradient>		<linearGradient id="linearGradient3884">			<stop stop-color="#8fabd0" offset="0"/>			<stop stop-color="#5196cf" offset="0.35722"/>			<stop stop-color="#a4efff" offset="1"/>		</linearGradient>		<linearGradient id="linearGradient4104" y2="-67.878" xlink:href="#linearGradient4091" gradientUnits="userSpaceOnUse" x2="704.26" gradientTransform="translate(-565.70537,242.6335)" y1="-100.7" x1="704.05"/>		<linearGradient id="linearGradient4106" y2="-103.58" xlink:href="#linearGradient4091" gradientUnits="userSpaceOnUse" x2="711.57" gradientTransform="translate(-565.70537,242.6335)" y1="-109.34" x1="705.05"/>		<linearGradient id="linearGradient4108" y2="-67.878" xlink:href="#linearGradient3884" gradientUnits="userSpaceOnUse" x2="704.26" gradientTransform="translate(-627.25927,243.39656)" y1="-100.7" x1="704.05"/>		<linearGradient id="linearGradient4110" y2="-103.58" xlink:href="#linearGradient3884" gradientUnits="userSpaceOnUse" x2="711.57" gradientTransform="translate(-627.25927,243.39656)" y1="-109.34" x1="705.05"/>		<linearGradient id="linearGradient4112" y2="-67.878" xlink:href="#linearGradient4210" gradientUnits="userSpaceOnUse" x2="704.26" gradientTransform="translate(-602.43111,282.20185)" y1="-100.7" x1="704.05"/>		<linearGradient id="linearGradient4114" y2="-103.58" xlink:href="#linearGradient4210" gradientUnits="userSpaceOnUse" x2="711.57" gradientTransform="translate(-602.43111,282.20185)" y1="-109.34" x1="705.05"/>		<linearGradient id="linearGradient4116" y2="-67.878" xlink:href="#linearGradient4300" gradientUnits="userSpaceOnUse" x2="704.26" gradientTransform="translate(-672.02821,282.20184)" y1="-100.7" x1="704.05"/>		<linearGradient id="linearGradient4118" y2="-103.58" xlink:href="#linearGradient4300" gradientUnits="userSpaceOnUse" x2="711.57" gradientTransform="translate(-672.02821,282.20184)" y1="-109.34" x1="705.05"/>	</defs>	<g transform="translate(2.8115009,0)">		<g transform="matrix(0.63574327,0,0,0.63574327,-43.030868,-80.991695)">			<path stroke-linejoin="miter" d="m132.77,175.16c-7.8405,0-14.049-13.237-13.734-19.423,0.40495-7.9418,5.3322-16.095,12.121-16.095,4.0832,0,5.2175,2.5327,7.9073,2.5145,3.2788-0.0221,6.2534-2.4281,9.5324-2.4281,3.1812,0,8.5769,2.1476,8.5769,5.5535,0,1.7296-4.6226,3.14-4.6226,8.0258,0,4.3522,5.61,6.0468,5.9632,9.4412,0,4.6736-7.3519,12.411-11.176,12.411-3.8246,0-5.301-1.9784-7.8237-1.9784-2.3998,0-4.8218,1.9784-6.7446,1.9784z" stroke="#FFF" stroke-linecap="butt" stroke-width="2" fill="url(#linearGradient4104)"/>			<g stroke-linejoin="miter" transform="translate(-320.62645,171.81875)" stroke="#3cb2b4" stroke-linecap="butt" stroke-width="2" fill="none">				<path opacity="0.5" d="m453.59,2.4878c-7.4663,0-13.379-12.602-13.078-18.491,0.38563-7.5607,5.0777-15.323,11.543-15.323,3.8883,0,4.9685,2.4112,7.5299,2.3939,3.1223-0.021,5.955-2.3116,9.0774-2.3116,3.0294,0,8.1676,2.0445,8.1676,5.287,0,1.6466-4.402,2.9893-4.402,7.6407,0,4.1434,5.3423,5.7566,5.6786,8.9882,0,4.4494-7.001,11.816-10.643,11.816-3.6421,0-5.0481-1.8835-7.4504-1.8835-2.2852,0-4.5917,1.8835-6.4227,1.8835z"/>				<path opacity="0.5" d="m453.45,2.8903c-7.6431,0-13.695-12.902-13.388-18.931,0.39476-7.7407,5.1979-15.688,11.816-15.688,3.9804,0,5.0862,2.4686,7.7082,2.4509,3.1963-0.0215,6.096-2.3666,9.2923-2.3666,3.1011,0,8.3609,2.0932,8.3609,5.4129,0,1.6858-4.5062,3.0605-4.5062,7.8226,0,4.242,5.4687,5.8937,5.813,9.2022,0,4.5553-7.1667,12.097-10.895,12.097s-5.1676-1.9283-7.6267-1.9283c-2.3393,0-4.7004,1.9283-6.5748,1.9283z"/>				<path opacity="0.5" d="m453.72,2.0853c-7.2896,0-13.062-12.302-12.769-18.051,0.3765-7.3807,4.9575-14.958,11.27-14.958,3.7963,0,4.8509,2.3538,7.3516,2.3369,3.0484-0.0205,5.814-2.2565,8.8625-2.2565,2.9577,0,7.9742,1.9959,7.9742,5.1612,0,1.6074-4.2978,2.9181-4.2978,7.4588,0,4.0447,5.2158,5.6196,5.5441,8.7742,0,4.3434-6.8352,11.534-10.391,11.534s-4.9286-1.8386-7.274-1.8386c-2.2311,0-4.483,1.8386-6.2707,1.8386z"/>			</g>			<path stroke-linejoin="miter" d="m132.77,175.16c-7.8405,0-14.049-13.237-13.734-19.423,0.40495-7.9418,5.3322-16.095,12.121-16.095,4.0832,0,5.2175,2.5327,7.9073,2.5145,3.2788-0.0221,6.2534-2.4281,9.5324-2.4281,3.1812,0,8.5769,2.1476,8.5769,5.5535,0,1.7296-4.6226,3.14-4.6226,8.0258,0,4.3522,5.61,6.0468,5.9632,9.4412,0,4.6736-7.3519,12.411-11.176,12.411-3.8246,0-5.301-1.9784-7.8237-1.9784-2.3998,0-4.8218,1.9784-6.7446,1.9784z" stroke="#FFF" stroke-linecap="butt" stroke-width="2" fill="none"/>			<path stroke-linejoin="miter" d="m138.39,141.66c9.2662-0.74078,9.9172-6.363,9.8921-11.691-7.2306,0.6822-11.632,4.1912-9.8921,11.691z" stroke="#FFF" stroke-linecap="butt" stroke-width="2" fill="url(#linearGradient4106)"/>			<path d="m120.09,155.39c0.38875-7.624,4.7373-14.688,11.255-14.688,3.9198,0,5.0088,2.6221,7.5909,2.6047,3.1476-0.0212,6.6397-2.4542,9.7868-2.3945,3.1041,0.0589,6.7755,1.0604,7.2799,4.3139,0.18832,1.2148-3.9913,1.8925-4.692,7.7047-6.8116-11.495-23.447-1.2349-31.22,2.4594z" fill-opacity="0.20331953" fill="#FFF"/>			<g transform="matrix(0,-1,1,0,247.4079,1072.5906)" fill-rule="nonzero">				<path d="m701.35-89.237c0,2.384-1.9326,4.3165-4.3166,4.3165s-4.3166-1.9326-4.3166-4.3165c0-2.384,1.9326-4.3165,4.3166-4.3165s4.3166,1.9326,4.3166,4.3165z" transform="matrix(1.40625,0,0,1.40625,-57.814854,7.1160453)" fill="#FFF"/>				<path d="m749.82-92.52c0,1.6141-1.3085,2.9227-2.9227,2.9227-1.6141,0-2.9227-1.3085-2.9227-2.9227,0-1.6141,1.3085-2.9227,2.9227-2.9227,1.6141,0,2.9227,1.3085,2.9227,2.9227z" transform="translate(178.36711,-25.944206)" fill="#002144"/>			</g>			<g transform="matrix(0,-1,1,0,263.23524,1088.4179)" fill-rule="nonzero">				<path d="m701.35-89.237c0,2.384-1.9326,4.3165-4.3166,4.3165s-4.3166-1.9326-4.3166-4.3165c0-2.384,1.9326-4.3165,4.3166-4.3165s4.3166,1.9326,4.3166,4.3165z" transform="matrix(1.40625,0,0,1.40625,-41.987514,7.1160453)" fill="#FFF"/>				<path d="m749.82-92.52c0,1.6141-1.3085,2.9227-2.9227,2.9227-1.6141,0-2.9227-1.3085-2.9227-2.9227,0-1.6141,1.3085-2.9227,2.9227-2.9227,1.6141,0,2.9227,1.3085,2.9227,2.9227z" transform="translate(193.65488,-25.944206)" fill="#002144"/>			</g>		</g>		<g transform="matrix(0.63574327,0,0,0.63574327,-3.8983919,-49.476806)">			<path stroke-linejoin="miter" d="m71.212,175.92c-7.8405,0-14.049-13.237-13.734-19.423,0.40495-7.9418,5.3322-16.095,12.121-16.095,4.0832,0,5.2175,2.5327,7.9073,2.5145,3.2788-0.0221,6.2534-2.4281,9.5324-2.4281,3.1812,0,8.5769,2.1476,8.5769,5.5535,0,1.7296-4.6226,3.14-4.6226,8.0258,0,4.3522,5.61,6.0468,5.9632,9.4412,0,4.6736-7.3519,12.411-11.176,12.411-3.8246,0-5.301-1.9784-7.8237-1.9784-2.3998,0-4.8218,1.9784-6.7446,1.9784z" stroke="#FFF" stroke-linecap="butt" stroke-width="2" fill="url(#linearGradient4108)"/>			<path opacity="0.5" stroke-linejoin="miter" d="m71.408,175.07c-7.4663,0-13.379-12.602-13.078-18.491,0.38563-7.5607,5.0777-15.323,11.543-15.323,3.8883,0,4.9685,2.4112,7.5299,2.3939,3.1223-0.021,5.955-2.3116,9.0774-2.3116,3.0294,0,8.1676,2.0445,8.1676,5.287,0,1.6466-4.402,2.9893-4.402,7.6407,0,4.1434,5.3423,5.7566,5.6786,8.9882,0,4.4494-7.001,11.816-10.643,11.816-3.6421,0-5.0481-1.8835-7.4504-1.8835-2.2852,0-4.5917,1.8835-6.4227,1.8835z" stroke-opacity="0.40663901" stroke="#00559f" stroke-linecap="butt" stroke-width="2" fill="none"/>			<path opacity="0.5" stroke-linejoin="miter" d="m71.273,175.47c-7.6431,0-13.695-12.902-13.388-18.931,0.39476-7.7407,5.1979-15.688,11.816-15.688,3.9804,0,5.0862,2.4686,7.7082,2.4509,3.1963-0.0215,6.096-2.3666,9.2923-2.3666,3.1011,0,8.3609,2.0932,8.3609,5.4129,0,1.6858-4.5062,3.0605-4.5062,7.8226,0,4.242,5.4687,5.8937,5.813,9.2022,0,4.5553-7.1667,12.097-10.895,12.097s-5.1676-1.9283-7.6267-1.9283c-2.3393,0-4.7004,1.9283-6.5748,1.9283z" stroke-opacity="0.40663901" stroke="#00559f" stroke-linecap="butt" stroke-width="2" fill="none"/>			<path opacity="0.5" stroke-linejoin="miter" d="m71.544,174.67c-7.2896,0-13.062-12.302-12.769-18.051,0.3765-7.3807,4.9575-14.958,11.27-14.958,3.7963,0,4.8509,2.3538,7.3516,2.3369,3.0484-0.0205,5.814-2.2565,8.8625-2.2565,2.9577,0,7.9742,1.9959,7.9742,5.1612,0,1.6074-4.2978,2.9181-4.2978,7.4588,0,4.0447,5.2158,5.6196,5.5441,8.7742,0,4.3434-6.8352,11.534-10.391,11.534s-4.9286-1.8386-7.274-1.8386c-2.2311,0-4.483,1.8386-6.2707,1.8386z" stroke-opacity="0.40663901" stroke="#00559f" stroke-linecap="butt" stroke-width="2" fill="none"/>			<path stroke-linejoin="miter" d="m71.212,175.92c-7.8405,0-14.049-13.237-13.734-19.423,0.40495-7.9418,5.3322-16.095,12.121-16.095,4.0832,0,5.2175,2.5327,7.9073,2.5145,3.2788-0.0221,6.2534-2.4281,9.5324-2.4281,3.1812,0,8.5769,2.1476,8.5769,5.5535,0,1.7296-4.6226,3.14-4.6226,8.0258,0,4.3522,5.61,6.0468,5.9632,9.4412,0,4.6736-7.3519,12.411-11.176,12.411-3.8246,0-5.301-1.9784-7.8237-1.9784-2.3998,0-4.8218,1.9784-6.7446,1.9784z" stroke="#FFF" stroke-linecap="butt" stroke-width="2" fill="none"/>			<path stroke-linejoin="miter" d="m76.832,142.42c9.2662-0.74078,9.9172-6.363,9.8921-11.691-7.2306,0.6822-11.632,4.1912-9.8921,11.691z" stroke="#FFF" stroke-linecap="butt" stroke-width="2" fill="url(#linearGradient4110)"/>			<path d="m58.623,156.11c0.38875-7.624,4.7373-14.688,11.255-14.688,3.9198,0,5.0088,2.6221,7.5909,2.6047,3.1476-0.0212,6.6397-2.4542,9.7868-2.3945,3.1041,0.0589,6.7755,1.0604,7.2799,4.3139,0.18832,1.2148-3.9913,1.8925-4.692,7.7047-6.8116-11.495-23.447-1.2349-31.22,2.4594z" fill-opacity="0.20331953" fill="#FFF"/>			<g fill-rule="nonzero" transform="translate(-854.90695,269.34077)">				<path d="m701.35-89.237c0,2.384-1.9326,4.3165-4.3166,4.3165s-4.3166-1.9326-4.3166-4.3165c0-2.384,1.9326-4.3165,4.3166-4.3165s4.3166,1.9326,4.3166,4.3165z" transform="matrix(1.40625,0,0,1.40625,-57.814854,7.1160453)" fill="#FFF"/>				<path d="m749.82-92.52c0,1.6141-1.3085,2.9227-2.9227,2.9227-1.6141,0-2.9227-1.3085-2.9227-2.9227,0-1.6141,1.3085-2.9227,2.9227-2.9227,1.6141,0,2.9227,1.3085,2.9227,2.9227z" transform="translate(178.36711,-25.944206)" fill="#002144"/>				<path d="m701.35-89.237c0,2.384-1.9326,4.3165-4.3166,4.3165s-4.3166-1.9326-4.3166-4.3165c0-2.384,1.9326-4.3165,4.3166-4.3165s4.3166,1.9326,4.3166,4.3165z" transform="matrix(1.40625,0,0,1.40625,-41.987514,7.1160453)" fill="#FFF"/>				<path d="m749.82-92.52c0,1.6141-1.3085,2.9227-2.9227,2.9227-1.6141,0-2.9227-1.3085-2.9227-2.9227,0-1.6141,1.3085-2.9227,2.9227-2.9227,1.6141,0,2.9227,1.3085,2.9227,2.9227z" transform="translate(193.65488,-25.944206)" fill="#002144"/>			</g>		</g>	</g>	<g transform="translate(0.81150028,0)">		<g transform="matrix(0.6357434,0,0,0.6357434,-49.68274,-74.147037)">			<path stroke-linejoin="miter" d="m96.04,214.73c-7.8405,0-14.049-13.237-13.734-19.423,0.40495-7.9418,5.3322-16.095,12.121-16.095,4.0832,0,5.2175,2.5327,7.9073,2.5145,3.2788-0.0221,6.2534-2.4281,9.5324-2.4281,3.1812,0,8.5769,2.1476,8.5769,5.5535,0,1.7296-4.6226,3.14-4.6226,8.0258,0,4.3522,5.61,6.0468,5.9632,9.4412,0,4.6736-7.3519,12.411-11.176,12.411-3.8246,0-5.301-1.9784-7.8237-1.9784-2.3998,0-4.8218,1.9784-6.7446,1.9784z" stroke="#FFF" stroke-linecap="butt" stroke-width="2" fill="url(#linearGradient4112)"/>			<g stroke-linejoin="miter" transform="translate(-357.35219,211.3871)" stroke="#e86f6f" stroke-linecap="butt" stroke-width="2" fill="none">				<path opacity="0.5" d="m453.59,2.4878c-7.4663,0-13.379-12.602-13.078-18.491,0.38563-7.5607,5.0777-15.323,11.543-15.323,3.8883,0,4.9685,2.4112,7.5299,2.3939,3.1223-0.021,5.955-2.3116,9.0774-2.3116,3.0294,0,8.1676,2.0445,8.1676,5.287,0,1.6466-4.402,2.9893-4.402,7.6407,0,4.1434,5.3423,5.7566,5.6786,8.9882,0,4.4494-7.001,11.816-10.643,11.816-3.6421,0-5.0481-1.8835-7.4504-1.8835-2.2852,0-4.5917,1.8835-6.4227,1.8835z"/>				<path opacity="0.5" d="m453.45,2.8903c-7.6431,0-13.695-12.902-13.388-18.931,0.39476-7.7407,5.1979-15.688,11.816-15.688,3.9804,0,5.0862,2.4686,7.7082,2.4509,3.1963-0.0215,6.096-2.3666,9.2923-2.3666,3.1011,0,8.3609,2.0932,8.3609,5.4129,0,1.6858-4.5062,3.0605-4.5062,7.8226,0,4.242,5.4687,5.8937,5.813,9.2022,0,4.5553-7.1667,12.097-10.895,12.097s-5.1676-1.9283-7.6267-1.9283c-2.3393,0-4.7004,1.9283-6.5748,1.9283z"/>				<path opacity="0.5" d="m453.72,2.0853c-7.2896,0-13.062-12.302-12.769-18.051,0.3765-7.3807,4.9575-14.958,11.27-14.958,3.7963,0,4.8509,2.3538,7.3516,2.3369,3.0484-0.0205,5.814-2.2565,8.8625-2.2565,2.9577,0,7.9742,1.9959,7.9742,5.1612,0,1.6074-4.2978,2.9181-4.2978,7.4588,0,4.0447,5.2158,5.6196,5.5441,8.7742,0,4.3434-6.8352,11.534-10.391,11.534s-4.9286-1.8386-7.274-1.8386c-2.2311,0-4.483,1.8386-6.2707,1.8386z"/>			</g>			<path stroke-linejoin="miter" d="m96.04,214.73c-7.8405,0-14.049-13.237-13.734-19.423,0.40495-7.9418,5.3322-16.095,12.121-16.095,4.0832,0,5.2175,2.5327,7.9073,2.5145,3.2788-0.0221,6.2534-2.4281,9.5324-2.4281,3.1812,0,8.5769,2.1476,8.5769,5.5535,0,1.7296-4.6226,3.14-4.6226,8.0258,0,4.3522,5.61,6.0468,5.9632,9.4412,0,4.6736-7.3519,12.411-11.176,12.411-3.8246,0-5.301-1.9784-7.8237-1.9784-2.3998,0-4.8218,1.9784-6.7446,1.9784z" stroke="#FFF" stroke-linecap="butt" stroke-width="2" fill="none"/>			<path stroke-linejoin="miter" d="m101.66,181.23c9.2662-0.74078,9.9172-6.363,9.8921-11.691-7.2306,0.6822-11.632,4.1912-9.8921,11.691z" stroke="#FFF" stroke-linecap="butt" stroke-width="2" fill="url(#linearGradient4114)"/>			<g fill-rule="nonzero" transform="matrix(-1,0,0,-1,1014.695,71.397894)">				<path d="m701.35-89.237c0,2.384-1.9326,4.3165-4.3166,4.3165s-4.3166-1.9326-4.3166-4.3165c0-2.384,1.9326-4.3165,4.3166-4.3165s4.3166,1.9326,4.3166,4.3165z" transform="matrix(1.40625,0,0,1.40625,-57.814854,7.1160453)" fill="#FFF"/>				<path d="m749.82-92.52c0,1.6141-1.3085,2.9227-2.9227,2.9227-1.6141,0-2.9227-1.3085-2.9227-2.9227,0-1.6141,1.3085-2.9227,2.9227-2.9227,1.6141,0,2.9227,1.3085,2.9227,2.9227z" transform="translate(178.36711,-25.944206)" fill="#002144"/>			</g>			<g fill-rule="nonzero" transform="matrix(-1,0,0,-1,1046.3497,71.397954)">				<path d="m701.35-89.237c0,2.384-1.9326,4.3165-4.3166,4.3165s-4.3166-1.9326-4.3166-4.3165c0-2.384,1.9326-4.3165,4.3166-4.3165s4.3166,1.9326,4.3166,4.3165z" transform="matrix(1.40625,0,0,1.40625,-41.987514,7.1160453)" fill="#FFF"/>				<path d="m749.82-92.52c0,1.6141-1.3085,2.9227-2.9227,2.9227-1.6141,0-2.9227-1.3085-2.9227-2.9227,0-1.6141,1.3085-2.9227,2.9227-2.9227,1.6141,0,2.9227,1.3085,2.9227,2.9227z" transform="translate(193.65488,-25.944206)" fill="#002144"/>			</g>			<path d="m83.361,194.96c0.38875-7.624,4.7373-14.688,11.255-14.688,3.9198,0,5.0088,2.6221,7.5909,2.6047,3.1476-0.0212,6.6397-2.4542,9.7868-2.3945,3.1041,0.0589,6.7755,1.0604,7.2799,4.3139,0.18832,1.2148-3.9913,1.8925-4.692,7.7047-6.8116-11.495-23.447-1.2349-31.22,2.4594z" fill-opacity="0.20331953" fill="#FFF"/>		</g>		<g transform="matrix(0.63574327,0,0,0.63574327,-5.4368387,-106.147)">			<path stroke-linejoin="miter" d="m26.443,214.73c-7.8405,0-14.049-13.237-13.734-19.423,0.40495-7.9418,5.3322-16.095,12.121-16.095,4.0832,0,5.2175,2.5327,7.9073,2.5145,3.2788-0.0221,6.2534-2.4281,9.5324-2.4281,3.1812,0,8.5769,2.1476,8.5769,5.5535,0,1.7296-4.6226,3.14-4.6226,8.0258,0,4.3522,5.61,6.0468,5.9632,9.4412,0,4.6736-7.3519,12.411-11.176,12.411-3.8246,0-5.301-1.9784-7.8237-1.9784-2.3998,0-4.8218,1.9784-6.7446,1.9784z" stroke="#FFF" stroke-linecap="butt" stroke-width="2" fill="url(#linearGradient4116)"/>			<g stroke-linejoin="miter" transform="translate(-426.94929,211.38709)" stroke="#846c26" stroke-linecap="butt" stroke-width="2" fill="none">				<path opacity="0.5" d="m453.59,2.4878c-7.4663,0-13.379-12.602-13.078-18.491,0.38563-7.5607,5.0777-15.323,11.543-15.323,3.8883,0,4.9685,2.4112,7.5299,2.3939,3.1223-0.021,5.955-2.3116,9.0774-2.3116,3.0294,0,8.1676,2.0445,8.1676,5.287,0,1.6466-4.402,2.9893-4.402,7.6407,0,4.1434,5.3423,5.7566,5.6786,8.9882,0,4.4494-7.001,11.816-10.643,11.816-3.6421,0-5.0481-1.8835-7.4504-1.8835-2.2852,0-4.5917,1.8835-6.4227,1.8835z"/>				<path opacity="0.5" d="m453.45,2.8903c-7.6431,0-13.695-12.902-13.388-18.931,0.39476-7.7407,5.1979-15.688,11.816-15.688,3.9804,0,5.0862,2.4686,7.7082,2.4509,3.1963-0.0215,6.096-2.3666,9.2923-2.3666,3.1011,0,8.3609,2.0932,8.3609,5.4129,0,1.6858-4.5062,3.0605-4.5062,7.8226,0,4.242,5.4687,5.8937,5.813,9.2022,0,4.5553-7.1667,12.097-10.895,12.097s-5.1676-1.9283-7.6267-1.9283c-2.3393,0-4.7004,1.9283-6.5748,1.9283z"/>				<path opacity="0.5" d="m453.72,2.0853c-7.2896,0-13.062-12.302-12.769-18.051,0.3765-7.3807,4.9575-14.958,11.27-14.958,3.7963,0,4.8509,2.3538,7.3516,2.3369,3.0484-0.0205,5.814-2.2565,8.8625-2.2565,2.9577,0,7.9742,1.9959,7.9742,5.1612,0,1.6074-4.2978,2.9181-4.2978,7.4588,0,4.0447,5.2158,5.6196,5.5441,8.7742,0,4.3434-6.8352,11.534-10.391,11.534s-4.9286-1.8386-7.274-1.8386c-2.2311,0-4.483,1.8386-6.2707,1.8386z"/>			</g>			<path stroke-linejoin="miter" d="m26.443,214.73c-7.8405,0-14.049-13.237-13.734-19.423,0.40495-7.9418,5.3322-16.095,12.121-16.095,4.0832,0,5.2175,2.5327,7.9073,2.5145,3.2788-0.0221,6.2534-2.4281,9.5324-2.4281,3.1812,0,8.5769,2.1476,8.5769,5.5535,0,1.7296-4.6226,3.14-4.6226,8.0258,0,4.3522,5.61,6.0468,5.9632,9.4412,0,4.6736-7.3519,12.411-11.176,12.411-3.8246,0-5.301-1.9784-7.8237-1.9784-2.3998,0-4.8218,1.9784-6.7446,1.9784z" stroke="#FFF" stroke-linecap="butt" stroke-width="2" fill="none"/>			<path stroke-linejoin="miter" d="m32.064,181.23c9.2662-0.74078,9.9172-6.363,9.8921-11.691-7.2306,0.6822-11.632,4.1912-9.8921,11.691z" stroke="#FFF" stroke-linecap="butt" stroke-width="2" fill="url(#linearGradient4118)"/>			<g fill-rule="nonzero" transform="matrix(0,-1,1,0,141.08506,1112.1589)">				<path d="m701.35-89.237c0,2.384-1.9326,4.3165-4.3166,4.3165s-4.3166-1.9326-4.3166-4.3165c0-2.384,1.9326-4.3165,4.3166-4.3165s4.3166,1.9326,4.3166,4.3165z" transform="matrix(1.40625,0,0,1.40625,-57.814854,7.1160453)" fill="#FFF"/>				<path d="m749.82-92.52c0,1.6141-1.3085,2.9227-2.9227,2.9227-1.6141,0-2.9227-1.3085-2.9227-2.9227,0-1.6141,1.3085-2.9227,2.9227-2.9227,1.6141,0,2.9227,1.3085,2.9227,2.9227z" transform="translate(178.36711,-25.944206)" fill="#002144"/>			</g>			<g fill-rule="nonzero" transform="matrix(0,-1,1,0,156.9124,1127.9862)">				<path d="m701.35-89.237c0,2.384-1.9326,4.3165-4.3166,4.3165s-4.3166-1.9326-4.3166-4.3165c0-2.384,1.9326-4.3165,4.3166-4.3165s4.3166,1.9326,4.3166,4.3165z" transform="matrix(1.40625,0,0,1.40625,-41.987514,7.1160453)" fill="#FFF"/>				<path d="m749.82-92.52c0,1.6141-1.3085,2.9227-2.9227,2.9227-1.6141,0-2.9227-1.3085-2.9227-2.9227,0-1.6141,1.3085-2.9227,2.9227-2.9227,1.6141,0,2.9227,1.3085,2.9227,2.9227z" transform="translate(193.65488,-25.944206)" fill="#002144"/>			</g>			<path d="m13.854,194.96c0.38875-7.624,4.7373-14.688,11.255-14.688,3.9198,0,5.0088,2.6221,7.5909,2.6047,3.1476-0.0212,6.6397-2.4542,9.7868-2.3945,3.1041,0.0589,6.7755,1.0604,7.2799,4.3139,0.18832,1.2148-3.9913,1.8925-4.692,7.7047-6.8116-11.495-23.447-1.2349-31.22,2.4594z" fill-opacity="0.20331953" fill="#FFF"/>		</g>	</g></svg>