<svg xmlns:rdf="http://www.w3.org/1999/02/22-rdf-syntax-ns#" xmlns="http://www.w3.org/2000/svg" height="128" width="128" version="1.1" xmlns:cc="http://creativecommons.org/ns#" xmlns:xlink="http://www.w3.org/1999/xlink" xmlns:dc="http://purl.org/dc/elements/1.1/">	<metadata>		<rdf:RDF>			<cc:Work rdf:about="">				<dc:format>image/svg+xml</dc:format>				<dc:type rdf:resource="http://purl.org/dc/dcmitype/StillImage"/>				<dc:title/>			</cc:Work>		</rdf:RDF>	</metadata>	<defs>		<linearGradient id="linearGradient4680">			<stop stop-color="#a7ca4a" offset="0"/>			<stop stop-color="#c1da7f" offset="1"/>		</linearGradient>		<linearGradient id="linearGradient4660">			<stop stop-color="#FFF" stop-opacity="0.33519554" offset="0"/>			<stop stop-color="#FFF" stop-opacity="0.08938547" offset="1"/>		</linearGradient>		<linearGradient id="linearGradient4666" x1="42.203" xlink:href="#linearGradient4660" gradientUnits="userSpaceOnUse" y1="27.402" gradientTransform="translate(0,64)" x2="45.524" y2="45.927"/>		<linearGradient id="linearGradient4674" x1="42.203" xlink:href="#linearGradient4660" gradientUnits="userSpaceOnUse" y1="27.402" gradientTransform="translate(-31.99975,32)" x2="45.524" y2="45.927"/>		<linearGradient id="linearGradient4676" x1="42.203" xlink:href="#linearGradient4660" gradientUnits="userSpaceOnUse" y1="27.402" gradientTransform="translate(-31.99975,64)" x2="45.524" y2="45.927"/>		<radialGradient id="radialGradient4688" xlink:href="#linearGradient4680" gradientUnits="userSpaceOnUse" cy="45.362" cx="15.879" gradientTransform="matrix(1,0,0,1.1501954,0,57.12886)" r="15.001"/>		<radialGradient id="radialGradient4696" xlink:href="#linearGradient4680" gradientUnits="userSpaceOnUse" cy="45.753" cx="47.76" gradientTransform="matrix(1,0,0,1.1683992,0,56.295306)" r="14.771"/>		<radialGradient id="radialGradient4742" xlink:href="#linearGradient4680" gradientUnits="userSpaceOnUse" cy="13.753" cx="47.76" gradientTransform="matrix(1,0,0,1.1683992,0,61.684081)" r="14.771"/>		<linearGradient id="linearGradient4744" x1="42.203" xlink:href="#linearGradient4660" gradientUnits="userSpaceOnUse" y1="27.402" gradientTransform="translate(0,32)" x2="45.524" y2="45.927"/>		<radialGradient id="radialGradient4746" xlink:href="#linearGradient4680" gradientUnits="userSpaceOnUse" cy="13.748" cx="15.061" gradientTransform="matrix(1,0,0,1.226864,0,60.881002)" r="14.064"/>	</defs>	<g transform="matrix(1.7187528,0,0,1.7187528,13.300556,-91.301001)" fill-rule="nonzero">		<path stroke-linejoin="miter" d="m60.033,102.14c1.2756,0,2.3026,1.2085,2.3026,2.7097v3.4625c0,1.5012-1.027,2.7097-2.3026,2.7097s-2.3026-1.2085-2.3026-2.7097v-3.4625c0-1.5012,1.027-2.7097,2.3026-2.7097z" stroke-dashoffset="7.5" transform="matrix(0.98796063,-0.15470553,-0.1314615,0.99132128,0,0)" stroke="#FFF" stroke-linecap="square" stroke-miterlimit="4" stroke-width="2.04229999" fill="#a7ca4a"/>		<path stroke-linejoin="miter" d="M38.188,93.5c-0.398-0.039-0.816,0.106-1.188,0.406-0.99276,0.80105-1.3232,2.55-0.75,3.9375l1.3125,3.1875c0.16586,0.40148,0.39841,0.72923,0.65625,0.96875-1.739,1.6974-3.0754,3.8575-3.75,6.375-2.0012,7.4685,2.4377,15.155,9.9062,17.156,7.4685,2.0012,15.155-2.4377,17.156-9.9062l-13.53-3.63,13.531-3.62c-1.2945-4.8313-5.075-8.6117-9.9062-9.9062-3.5642-0.95501-7.168-0.41858-10.188,1.1875,0.0059-0.50637-0.08615-1.0277-0.28125-1.5l-1.312-3.224c-0.358-0.868-0.994-1.373-1.656-1.438z" stroke-dashoffset="7.5" stroke="#FFF" stroke-linecap="square" stroke-miterlimit="4" stroke-dasharray="none" stroke-width="2" fill="url(#radialGradient4696)"/>		<path stroke-linejoin="miter" d="m17.446,7.1655c0,0.69532-0.56367,1.259-1.259,1.259-0.69532,0-1.259-0.56367-1.259-1.259,0-0.69532,0.56367-1.259,1.259-1.259,0.69532,0,1.259,0.56367,1.259,1.259z" stroke-dashoffset="7.5" transform="matrix(1.1914286,0,0,1.1914286,29.714286,94.462857)" stroke="#FFF" stroke-linecap="square" stroke-miterlimit="4" stroke-dasharray="none" stroke-width="0.83932853" fill="#FFF"/>		<path d="M38.188,93.5c-0.398-0.039-0.816,0.106-1.188,0.406-0.99276,0.80105-1.3232,2.55-0.75,3.9375l1.3125,3.1875c0.16586,0.40148,0.39841,0.72923,0.65625,0.96875-1.739,1.6974-3.0754,3.8575-3.75,6.375,15.799-2.7906,16.692-6.9719,27.062,0-0.72633-2.7107-2.2352-5.0906-4.2732-6.8862-1.5943-1.4047-3.5124-2.4518-5.633-3.02-3.5642-0.95501-7.168-0.41858-10.188,1.1875,0.0059-0.50637-0.08615-1.0277-0.28125-1.5l-1.311-3.22c-0.358-0.868-0.994-1.373-1.656-1.438z" fill="url(#linearGradient4666)"/>	</g>	<g transform="matrix(1.7187425,0,0,1.7187425,13.300895,-100.29994)" fill-rule="nonzero">		<path stroke-linejoin="miter" d="m55.646,69.172c1.2756,0,2.3026,1.2085,2.3026,2.7097v3.4625c0,1.5012-1.027,2.7097-2.3026,2.7097s-2.3026-1.2085-2.3026-2.7097v-3.4625c0-1.5012,1.027-2.7097,2.3026-2.7097z" stroke-dashoffset="7.5" transform="matrix(0.98796063,-0.15470553,-0.1314615,0.99132128,0,0)" stroke="#FFF" stroke-linecap="square" stroke-miterlimit="4" stroke-width="2.04229999" fill="#a7ca4a"/>		<path stroke-linejoin="miter" d="M38.188,61.5c-0.398-0.039-0.816,0.106-1.188,0.406-0.99276,0.80105-1.3232,2.55-0.75,3.9375l1.3125,3.1875c0.16586,0.40148,0.39841,0.72923,0.65625,0.96875-1.739,1.6974-3.0754,3.8575-3.75,6.375-2.0012,7.4685,2.4377,15.155,9.9062,17.156,7.4685,2.0012,15.155-2.4377,17.156-9.9062l-13.53-3.626,13.531-3.625c-1.2945-4.8313-5.075-8.6117-9.9062-9.9062-3.5642-0.95501-7.168-0.41858-10.188,1.1875,0.0059-0.50637-0.08615-1.0277-0.28125-1.5l-1.312-3.218c-0.358-0.868-0.994-1.373-1.656-1.438z" stroke-dashoffset="7.5" stroke="#FFF" stroke-linecap="square" stroke-miterlimit="4" stroke-dasharray="none" stroke-width="2" fill="url(#radialGradient4742)"/>		<path stroke-linejoin="miter" d="m17.446,7.1655c0,0.69532-0.56367,1.259-1.259,1.259-0.69532,0-1.259-0.56367-1.259-1.259,0-0.69532,0.56367-1.259,1.259-1.259,0.69532,0,1.259,0.56367,1.259,1.259z" stroke-dashoffset="7.5" transform="matrix(1.1914286,0,0,1.1914286,29.714286,62.462857)" stroke="#FFF" stroke-linecap="square" stroke-miterlimit="4" stroke-dasharray="none" stroke-width="0.83932853" fill="#FFF"/>		<path d="M38.188,61.5c-0.398-0.039-0.816,0.106-1.188,0.406-0.99276,0.80105-1.3232,2.55-0.75,3.9375l1.3125,3.1875c0.16586,0.40148,0.39841,0.72923,0.65625,0.96875-1.739,1.6974-3.0754,3.8575-3.75,6.375,15.799-2.7906,16.692-6.9719,27.062,0-0.72633-2.7107-2.2352-5.0906-4.2732-6.8862-1.5943-1.4047-3.5124-2.4518-5.633-3.02-3.5642-0.95501-7.168-0.41858-10.188,1.1875,0.0059-0.50637-0.08615-1.0277-0.28125-1.5l-1.311-3.22c-0.358-0.868-0.994-1.373-1.656-1.438z" fill="url(#linearGradient4744)"/>	</g>	<g transform="matrix(1.719187,0,0,1.719187,4.2845563,-91.340492)" fill-rule="nonzero">		<path stroke-linejoin="miter" d="m26.956,96.974c1.2756,0,2.3026,1.2085,2.3026,2.7097v3.4625c0,1.5012-1.027,2.7097-2.3026,2.7097s-2.3026-1.2085-2.3026-2.7097v-3.4625c0-1.5012,1.027-2.7097,2.3026-2.7097z" stroke-dashoffset="7.5" transform="matrix(0.98796063,-0.15470553,-0.1314615,0.99132128,0,0)" stroke="#FFF" stroke-linecap="square" stroke-miterlimit="4" stroke-width="2.04229999" fill="#a7ca4a"/>		<path stroke-linejoin="miter" d="M6.1875,93.5c-0.3973-0.039-0.8152,0.106-1.1875,0.406-0.9928,0.801-1.3232,2.55-0.75,3.938l1.3125,3.1875c0.1659,0.4,0.3984,0.73,0.6563,0.97-2.5408,2.48-4.1519,5.92-4.2188,9.75-0.1349,7.73,6.0192,14.12,13.75,14.25,7.731,0.13,14.115-6.02,14.25-13.75l-14-0.25,14-0.25c-0.132-7.54-6.209-13.618-13.75-13.75-2.456-0.043-4.786,0.549-6.8125,1.625,0.002-0.496-0.0901-1.006-0.2813-1.469l-1.3124-3.218c-0.3583-0.868-0.9942-1.373-1.6563-1.438z" stroke-dashoffset="7.5" stroke="#FFF" stroke-linecap="square" stroke-miterlimit="4" stroke-dasharray="none" stroke-width="2" fill="url(#radialGradient4688)"/>		<path stroke-linejoin="miter" d="m17.446,7.1655c0,0.69532-0.56367,1.259-1.259,1.259-0.69532,0-1.259-0.56367-1.259-1.259,0-0.69532,0.56367-1.259,1.259-1.259,0.69532,0,1.259,0.56367,1.259,1.259z" stroke-dashoffset="7.5" transform="matrix(1.1914286,0,0,1.1914286,-2.2857141,94.462857)" stroke="#FFF" stroke-linecap="square" stroke-miterlimit="4" stroke-dasharray="none" stroke-width="0.83932853" fill="#FFF"/>		<path d="m6.1878,93.5c-0.39725-0.03881-0.81521,0.10586-1.1875,0.40625-0.99276,0.80105-1.3232,2.55-0.75,3.9375l1.3125,3.1875c0.16586,0.40148,0.39841,0.72923,0.65625,0.96875-1.739,1.6974-3.0754,3.8575-3.75,6.375,15.799-2.7906,16.692-6.9719,27.062,0-0.72633-2.7107-2.2352-5.0906-4.2732-6.8862-1.5943-1.4047-3.5124-2.4518-5.633-3.02-3.5642-0.95501-7.168-0.41858-10.188,1.1875,0.0059-0.50637-0.08615-1.0277-0.28125-1.5l-1.3118-3.22c-0.3582-0.868-0.9942-1.373-1.6562-1.438z" fill="url(#linearGradient4676)"/>	</g>	<g transform="matrix(1.7191458,0,0,1.7191458,4.2878769,-100.3237)" fill-rule="nonzero">		<path stroke-linejoin="miter" d="m22.569,64.009c1.2756,0,2.3026,1.2085,2.3026,2.7097v3.4625c0,1.5012-1.027,2.7097-2.3026,2.7097s-2.3026-1.2085-2.3026-2.7097v-3.4625c0-1.5012,1.027-2.7097,2.3026-2.7097z" stroke-dashoffset="7.5" transform="matrix(0.98796063,-0.15470553,-0.1314615,0.99132128,0,0)" stroke="#FFF" stroke-linecap="square" stroke-miterlimit="4" stroke-width="2.04229999" fill="#a7ca4a"/>		<path stroke-linejoin="miter" d="M6.1875,61.5c-0.3973-0.039-0.8152,0.106-1.1875,0.406-0.9928,0.801-1.3232,2.55-0.75,3.938l1.3125,3.1875c0.1659,0.401,0.3984,0.728,0.6563,0.968-0.8923,0.873-1.6891,1.866-2.3438,3-3.866,6.696-1.5711,15.259,5.125,19.125,6.696,3.866,15.259,1.571,19.125-5.125l-12.125-7,12.125-7c-1.229-2.128-2.997-3.896-5.125-5.125-4.34-2.506-9.441-2.411-13.562-0.219,0.0059-0.506-0.0862-1.027-0.2813-1.5l-1.3124-3.218c-0.3583-0.868-0.9942-1.373-1.6563-1.438z" stroke-dashoffset="7.5" stroke="#FFF" stroke-linecap="square" stroke-miterlimit="4" stroke-dasharray="none" stroke-width="2" fill="url(#radialGradient4746)"/>		<path stroke-linejoin="miter" d="m17.446,7.1655c0,0.69532-0.56367,1.259-1.259,1.259-0.69532,0-1.259-0.56367-1.259-1.259,0-0.69532,0.56367-1.259,1.259-1.259,0.69532,0,1.259,0.56367,1.259,1.259z" stroke-dashoffset="7.5" transform="matrix(1.1914286,0,0,1.1914286,-2.2857139,62.462857)" stroke="#FFF" stroke-linecap="square" stroke-miterlimit="4" stroke-dasharray="none" stroke-width="0.83932853" fill="#FFF"/>		<path fill="url(#linearGradient4674)" d="m6.1878,61.5c-0.39725-0.03881-0.81521,0.10586-1.1875,0.40625-0.99276,0.80105-1.3232,2.55-0.75,3.9375l1.3125,3.1875c0.1658,0.401,0.3984,0.728,0.6562,0.968-1.739,1.6974-3.0754,3.8575-3.75,6.375,13.394-2.3659,15.939-6.0036,22.722-2.8076,1.2178,0.57375,0.20492-1.8517,1.7832-0.79062-0.72633-2.7107,0.32145-1.4924-1.7166-3.288-1.5943-1.4047-3.5124-2.4518-5.633-3.02-3.5642-0.95501-7.168-0.41858-10.188,1.1875,0.0059-0.50637-0.08615-1.0277-0.28125-1.5l-1.3118-3.218c-0.3582-0.868-0.9942-1.373-1.6562-1.438z"/>	</g></svg>