<?xml version="1.0" encoding="UTF-8" standalone="no"?>
<!-- Created with Inkscape (http://www.inkscape.org/) -->

<svg
   xmlns:dc="http://purl.org/dc/elements/1.1/"
   xmlns:cc="http://creativecommons.org/ns#"
   xmlns:rdf="http://www.w3.org/1999/02/22-rdf-syntax-ns#"
   xmlns:svg="http://www.w3.org/2000/svg"
   xmlns="http://www.w3.org/2000/svg"
   xmlns:xlink="http://www.w3.org/1999/xlink"
   xmlns:sodipodi="http://sodipodi.sourceforge.net/DTD/sodipodi-0.dtd"
   xmlns:inkscape="http://www.inkscape.org/namespaces/inkscape"
   width="480"
   height="320"
   id="svg2"
   version="1.1"
   inkscape:version="0.47 r22583"
   sodipodi:docname="logo.svg"
   inkscape:export-filename="E:\android\AndEngine\ext\img\logo4.png"
   inkscape:export-xdpi="90"
   inkscape:export-ydpi="90">
  <defs
     id="defs4">
    <linearGradient
       id="linearGradient3675">
      <stop
         style="stop-color:#6ac335;stop-opacity:1;"
         offset="0"
         id="stop3677" />
      <stop
         id="stop3693"
         offset="0.67358595"
         style="stop-color:#6ac335;stop-opacity:0.37988827;" />
      <stop
         style="stop-color:#6ac335;stop-opacity:0;"
         offset="1"
         id="stop3679" />
    </linearGradient>
    <linearGradient
       id="linearGradient3942">
      <stop
         style="stop-color:#6ac335;stop-opacity:1;"
         offset="0"
         id="stop3944" />
      <stop
         id="stop3630"
         offset="0.38674596"
         style="stop-color:#6ac335;stop-opacity:1" />
      <stop
         style="stop-color:#6ac335;stop-opacity:0;"
         offset="1"
         id="stop3946" />
    </linearGradient>
    <linearGradient
       id="linearGradient3851">
      <stop
         id="stop3865"
         offset="0"
         style="stop-color:#6ac335;stop-opacity:0;" />
      <stop
         id="stop3863"
         offset="0.90119064"
         style="stop-color:#939393;stop-opacity:1;" />
      <stop
         style="stop-color:#6ac335;stop-opacity:1;"
         offset="0.9287079"
         id="stop3869" />
      <stop
         style="stop-color:#ffffff;stop-opacity:0;"
         offset="1"
         id="stop3855" />
    </linearGradient>
    <linearGradient
       id="linearGradient3829">
      <stop
         style="stop-color:#000000;stop-opacity:0;"
         offset="0"
         id="stop3831" />
      <stop
         id="stop3837"
         offset="0.08081111"
         style="stop-color:#000000;stop-opacity:0.86033517;" />
      <stop
         style="stop-color:#000000;stop-opacity:0;"
         offset="1"
         id="stop3833" />
    </linearGradient>
    <inkscape:perspective
       sodipodi:type="inkscape:persp3d"
       inkscape:vp_x="0 : 526.18109 : 1"
       inkscape:vp_y="0 : 1000 : 0"
       inkscape:vp_z="744.09448 : 526.18109 : 1"
       inkscape:persp3d-origin="372.04724 : 350.78739 : 1"
       id="perspective10" />
    <inkscape:perspective
       id="perspective2835"
       inkscape:persp3d-origin="0.5 : 0.33333333 : 1"
       inkscape:vp_z="1 : 0.5 : 1"
       inkscape:vp_y="0 : 1000 : 0"
       inkscape:vp_x="0 : 0.5 : 1"
       sodipodi:type="inkscape:persp3d" />
    <inkscape:perspective
       id="perspective3694"
       inkscape:persp3d-origin="0.5 : 0.33333333 : 1"
       inkscape:vp_z="1 : 0.5 : 1"
       inkscape:vp_y="0 : 1000 : 0"
       inkscape:vp_x="0 : 0.5 : 1"
       sodipodi:type="inkscape:persp3d" />
    <inkscape:perspective
       id="perspective2915"
       inkscape:persp3d-origin="0.5 : 0.33333333 : 1"
       inkscape:vp_z="1 : 0.5 : 1"
       inkscape:vp_y="0 : 1000 : 0"
       inkscape:vp_x="0 : 0.5 : 1"
       sodipodi:type="inkscape:persp3d" />
    <linearGradient
       inkscape:collect="always"
       xlink:href="#linearGradient3829"
       id="linearGradient3835"
       x1="248.22847"
       y1="845.06549"
       x2="248.22847"
       y2="789.3996"
       gradientUnits="userSpaceOnUse"
       gradientTransform="matrix(1,0,0,1.1654092,0,-134.82366)" />
    <radialGradient
       inkscape:collect="always"
       xlink:href="#linearGradient3942"
       id="radialGradient3948"
       cx="144.49585"
       cy="86.383949"
       fx="144.49585"
       fy="86.383949"
       r="220.76167"
       gradientTransform="matrix(0.64284754,0.00515087,-0.00482929,0.74489324,52.024217,21.29285)"
       gradientUnits="userSpaceOnUse" />
  </defs>
  <sodipodi:namedview
     id="base"
     pagecolor="#ffffff"
     bordercolor="#666666"
     borderopacity="1.0"
     inkscape:pageopacity="1"
     inkscape:pageshadow="2"
     inkscape:zoom="1"
     inkscape:cx="222.97932"
     inkscape:cy="187.69267"
     inkscape:document-units="px"
     inkscape:current-layer="layer1"
     showgrid="false"
     inkscape:window-width="1280"
     inkscape:window-height="738"
     inkscape:window-x="1672"
     inkscape:window-y="410"
     inkscape:window-maximized="1" />
  <metadata
     id="metadata7">
    <rdf:RDF>
      <cc:Work
         rdf:about="">
        <dc:format>image/svg+xml</dc:format>
        <dc:type
           rdf:resource="http://purl.org/dc/dcmitype/StillImage" />
        <dc:title></dc:title>
      </cc:Work>
    </rdf:RDF>
  </metadata>
  <g
     inkscape:label="Ebene 1"
     inkscape:groupmode="layer"
     id="layer1"
     transform="translate(0,-732.36218)">
    <text
       xml:space="preserve"
       style="font-size:18.35328293px;font-style:normal;font-variant:normal;font-weight:bold;font-stretch:normal;text-align:start;line-height:125%;writing-mode:lr-tb;text-anchor:start;fill:#6c6a69;fill-opacity:1;stroke:none;font-family:Calibri;-inkscape-font-specification:Calibri Bold"
       x="292.56503"
       y="970.38995"
       id="text3596"
       sodipodi:linespacing="125%"><tspan
         sodipodi:role="line"
         id="tspan3598"
         x="292.56503"
         y="970.38995">... coming 2010</tspan></text>
    <g
       id="g3228"
       style="fill:#6ac335;fill-opacity:1"
       transform="matrix(0.25578178,0,0,0.25578178,219.71999,788.7603)" />
    <text
       xml:space="preserve"
       style="font-size:23.7490654px;font-style:normal;font-variant:normal;font-weight:bold;font-stretch:normal;text-align:start;line-height:125%;writing-mode:lr-tb;text-anchor:start;fill:#000000;fill-opacity:1;stroke:none;font-family:Calibri;-inkscape-font-specification:Calibri Bold"
       x="188.15909"
       y="936.28876"
       id="text2816"
       sodipodi:linespacing="125%"><tspan
         sodipodi:role="line"
         id="tspan2818"
         x="188.15909"
         y="936.28876"><tspan
           style="font-size:23.7490654px;font-style:normal;font-variant:normal;font-weight:bold;font-stretch:normal;text-align:start;line-height:125%;writing-mode:lr-tb;text-anchor:start;fill:#6c6a69;fill-opacity:1;font-family:Calibri;-inkscape-font-specification:Calibri Bold"
           id="tspan3594">and</tspan><tspan
           style="font-size:23.7490654px;font-style:normal;font-variant:normal;font-weight:bold;font-stretch:normal;text-align:start;line-height:125%;writing-mode:lr-tb;text-anchor:start;fill:#6ac335;fill-opacity:1;font-family:Calibri;-inkscape-font-specification:Calibri Bold"
           id="tspan2820">engine</tspan></tspan></text>
    <g
       id="g3661"
       transform="matrix(0.66728251,0,0,0.66728251,51.687547,318.573)">
      <rect
         inkscape:transform-center-x="6.6243255"
         transform="matrix(-0.97835396,0.20693846,-0.20693846,-0.97835396,0,0)"
         inkscape:transform-center-y="-6.6243307"
         style="fill:#6ac335;fill-opacity:1;stroke:none"
         id="rect3171"
         width="4.8068614"
         height="14.755947"
         x="-111.8287"
         y="-989.23364"
         rx="3.0479631"
         ry="2.4076385" />
      <path
         style="fill:#6ac335;fill-opacity:1;stroke:none"
         d="m 327.18992,942.51075 c -3.86939,-3.2649 -9.21127,-3.30179 -11.9308,-0.0787 -0.18469,0.21888 -0.35779,0.44625 -0.50903,0.6827 l 13.93752,11.76012 c 0.20766,-0.18885 0.40264,-0.39774 0.58733,-0.61663 2.71954,-3.22307 1.78437,-8.48257 -2.08502,-11.74747 z"
         id="path2170" />
      <path
         style="fill:#6ac335;fill-opacity:1;stroke:none"
         d="m 314.28279,943.48322 -8.85459,10.49401 c -0.72213,0.85584 -0.3789,2.3248 0.76912,3.29345 l 9.88479,8.34051 c 1.14798,0.96865 2.65375,1.05986 3.3759,0.20403 l 8.85458,-10.49402 -14.0298,-11.83798 z"
         id="rect3158" />
      <rect
         style="fill:#6ac335;fill-opacity:1;stroke:none"
         id="rect3162"
         width="4.1955686"
         height="10.342566"
         x="852.40466"
         y="530.42889"
         rx="2.6603508"
         ry="2.0792975"
         transform="matrix(0.76428223,0.64488191,-0.64488191,0.76428223,0,0)" />
      <rect
         ry="2.0792975"
         rx="2.6603508"
         y="530.42889"
         x="859.23743"
         height="10.342566"
         width="4.1955686"
         id="rect3164"
         style="fill:#6ac335;fill-opacity:1;stroke:none"
         transform="matrix(0.76428223,0.64488191,-0.64488191,0.76428223,0,0)" />
      <rect
         inkscape:transform-center-y="3.3738607"
         inkscape:transform-center-x="-1.1956068"
         ry="2.1014569"
         rx="2.6603508"
         y="1004.1589"
         x="115.82338"
         height="12.87942"
         width="4.1955686"
         id="rect3169"
         style="fill:#6ac335;fill-opacity:1;stroke:none"
         transform="matrix(0.97719006,-0.21236662,0.21236662,0.97719006,0,0)" />
      <rect
         style="fill:#6ac335;fill-opacity:1;stroke:none"
         id="rect3191"
         width="4.0499983"
         height="0.71646994"
         x="883.28796"
         y="-531.77448"
         rx="0.40474913"
         ry="0.34522951"
         transform="matrix(-0.22826352,0.97359939,-0.98944622,-0.14490061,0,0)" />
      <rect
         transform="matrix(-0.92547794,0.37880151,0.32057703,0.94722245,0,0)"
         ry="0.34272945"
         rx="0.39631769"
         y="1002.0131"
         x="-12.738621"
         height="0.71128154"
         width="3.9656317"
         id="rect3193"
         style="fill:#6ac335;fill-opacity:1;stroke:none" />
      <path
         sodipodi:type="arc"
         style="fill:#6ac335;fill-opacity:1;stroke:none"
         id="path3196"
         sodipodi:cx="341.96429"
         sodipodi:cy="536.11218"
         sodipodi:rx="3.0357144"
         sodipodi:ry="3.0357144"
         d="m 345.00001,536.11218 c 0,1.67658 -1.35914,3.03572 -3.03572,3.03572 -1.67657,0 -3.03571,-1.35914 -3.03571,-3.03572 0,-1.67658 1.35914,-3.03571 3.03571,-3.03571 1.67658,0 3.03572,1.35913 3.03572,3.03571 z"
         transform="matrix(0.20880177,0.17618162,-0.17618162,0.20880177,344.29231,770.85181)" />
      <path
         transform="matrix(0.20880177,0.17618162,-0.17618162,0.20880177,350.74278,776.29456)"
         d="m 345.00001,536.11218 c 0,1.67658 -1.35914,3.03572 -3.03572,3.03572 -1.67657,0 -3.03571,-1.35914 -3.03571,-3.03572 0,-1.67658 1.35914,-3.03571 3.03571,-3.03571 1.67658,0 3.03572,1.35913 3.03572,3.03571 z"
         sodipodi:ry="3.0357144"
         sodipodi:rx="3.0357144"
         sodipodi:cy="536.11218"
         sodipodi:cx="341.96429"
         id="path3198"
         style="fill:#6ac335;fill-opacity:1;stroke:none"
         sodipodi:type="arc" />
      <path
         sodipodi:type="arc"
         style="fill:#ffffff;fill-opacity:1;stroke:none"
         id="path3224"
         sodipodi:cx="341.96429"
         sodipodi:cy="536.11218"
         sodipodi:rx="3.0357144"
         sodipodi:ry="3.0357144"
         d="m 345.00001,536.11218 c 0,1.67658 -1.35914,3.03572 -3.03572,3.03572 -1.67657,0 -3.03571,-1.35914 -3.03571,-3.03572 0,-1.67658 1.35914,-3.03571 3.03571,-3.03571 1.67658,0 3.03572,1.35913 3.03572,3.03571 z"
         transform="matrix(0.20880177,0.17618162,-0.17618162,0.20880177,344.29232,770.85179)" />
      <path
         transform="matrix(0.20880177,0.17618162,-0.17618162,0.20880177,350.74279,776.29455)"
         d="m 345.00001,536.11218 c 0,1.67658 -1.35914,3.03572 -3.03572,3.03572 -1.67657,0 -3.03571,-1.35914 -3.03571,-3.03572 0,-1.67658 1.35914,-3.03571 3.03571,-3.03571 1.67658,0 3.03572,1.35913 3.03572,3.03571 z"
         sodipodi:ry="3.0357144"
         sodipodi:rx="3.0357144"
         sodipodi:cy="536.11218"
         sodipodi:cx="341.96429"
         id="path3226"
         style="fill:#ffffff;fill-opacity:1;stroke:none"
         sodipodi:type="arc" />
    </g>
    <g
       id="g2870"
       transform="matrix(1.0565786,0,0,1.0565786,-13.578873,-56.488633)">
      <g
         transform="matrix(0.91241793,0,0,0.72820562,-26.877269,475.12677)"
         style="font-size:144px;font-style:normal;font-variant:normal;font-weight:normal;font-stretch:normal;text-align:start;line-height:100%;writing-mode:lr-tb;text-anchor:start;fill:#6c6a69;fill-opacity:1;stroke:none;font-family:DroidLogo;-inkscape-font-specification:DroidLogo"
         id="g4104">
        <path
           style="fill:#6c6a69;fill-opacity:1"
           d="m 250.3125,538.625 c 1.24314,5.06051 -3.45844,16.07774 5.0625,13.8125 8.36991,0.67232 17.33545,-1.24662 25.40625,0.75 5.88112,4.70736 2.53275,14.14546 3.5,20.71875 0,6.4375 0,12.875 0,19.3125 -7.60943,-0.97019 -16.28901,1.97557 -23.28125,-1.5625 -4.39171,-3.9238 -4.32513,-12.40661 0.0312,-16.25 5.79911,-3.02843 12.89224,-0.58972 19.15625,-1.375 -1.44199,-4.80801 3.21483,-15.71483 -3,-15.75 -10.01442,-0.38046 -23.28208,-1.14906 -28.84375,9.25 -4.84738,9.86772 -4.93963,22.53859 0.15625,32.3125 5.63668,10.04725 18.72335,9.61918 28.65625,9.125 6.75,0 13.5,0 20.25,0 -0.25038,-16.72855 0.3583,-33.61516 0,-50.21875 -0.52811,-9.15326 -4.96018,-19.93694 -15.0625,-21.5625 -10.57435,-1.24011 -21.37736,-0.17226 -32.03125,-0.5625 l 0,1 0,1 z"
           id="path4106" />
      </g>
      <g
         transform="matrix(0.91241793,0,0,0.72820562,78.837265,386.96548)"
         id="text4112"
         style="font-size:144px;font-style:normal;font-variant:normal;font-weight:normal;font-stretch:normal;text-align:start;line-height:125%;writing-mode:lr-tb;text-anchor:start;fill:#6ac335;fill-opacity:1;stroke:none;font-family:DroidLogo;-inkscape-font-specification:DroidLogo">
        <path
           d="m 195.625,658.25 c -10.98852,0.0926 -21.90394,7.29117 -24,18.53125 -5.55572,16.30962 -3.70998,36.98476 9.46875,49 9.93177,6.81219 22.8497,3.92719 34.125,4.59375 -1.44199,-4.80801 3.21483,-15.71483 -3,-15.75 -9.28171,-0.43086 -22.45146,2.58153 -27.84375,-7.46875 -4.13591,-9.26205 -4.16164,-21.59599 2.625,-29.5625 5.93426,-5.06785 16.08675,-4.76695 22.125,-0.25 1.83801,2.56633 2.16019,8.01947 -0.59375,9.875 -6.5912,0.29059 -13.259,-0.0962 -19.875,-0.0625 1.31399,4.66266 -3.09518,15.05881 2.99999,14.93337 9.72798,-0.32654 22.82366,2.33246 29.00001,-7.46462 9.27917,-13.0104 -0.13273,-32.90056 -15.4375,-35.59375 -3.14129,-0.7027 -6.37553,-0.92115 -9.59375,-0.78125 z"
           id="path2876" />
      </g>
    </g>
    <path
       transform="matrix(0.91757651,0,0,0.91757651,37.67438,801.06332)"
       style="fill:#ffffff;stroke:none;opacity:0.5"
       d="M 301,99.5 C 300.18263,128.79144 300.27147,85.592043 272.97699,85.592043 228.51807,85.592043 140,143.95892 140,99.5 140,55.041078 176.04108,19 220.5,19 264.95892,19 301,55.041078 301,99.5 z"
       id="path2867"
       sodipodi:nodetypes="csssc" />
  </g>
</svg>
