<?xml version="1.0" encoding="UTF-8" standalone="no"?>
<!-- Created with Inkscape (http://www.inkscape.org/) -->
<svg xmlns:dc="http://purl.org/dc/elements/1.1/" xmlns:cc="http://web.resource.org/cc/" xmlns:rdf="http://www.w3.org/1999/02/22-rdf-syntax-ns#" xmlns:svg="http://www.w3.org/2000/svg" xmlns="http://www.w3.org/2000/svg" xmlns:sodipodi="http://sodipodi.sourceforge.net/DTD/sodipodi-0.dtd" xmlns:inkscape="http://www.inkscape.org/namespaces/inkscape" width="120" height="140" id="svg2" sodipodi:version="0.32" inkscape:version="0.45.1" sodipodi:docbase="H:\kk_files\Robotics\robot-p" sodipodi:docname="android3.svg" inkscape:output_extension="org.inkscape.output.svg.inkscape" version="1.0">
  <defs id="defs4"/>
  <sodipodi:namedview id="base" pagecolor="#ffffff" bordercolor="#666666" borderopacity="1.0" gridtolerance="10000" guidetolerance="10" objecttolerance="10" inkscape:pageopacity="0.0" inkscape:pageshadow="2" inkscape:zoom="0.98994949" inkscape:cx="437.02723" inkscape:cy="229.42076" inkscape:document-units="px" inkscape:current-layer="layer1" inkscape:window-width="1024" inkscape:window-height="712" inkscape:window-x="-4" inkscape:window-y="-4"/>
  <metadata id="metadata7">
    <rdf:RDF>
      <cc:Work rdf:about="">
        <dc:format>image/svg+xml</dc:format>
        <dc:type rdf:resource="http://purl.org/dc/dcmitype/StillImage"/>
      </cc:Work>
    </rdf:RDF>
  </metadata>
  <g inkscape:label="Layer 1" inkscape:groupmode="layer" id="layer1">
    <g id="g3279" transform="translate(-299.005, -503.076)">
      <g style="fill: rgb(151, 192, 36); fill-opacity: 1;" id="g3228">
        <path style="opacity: 0.977778; fill: rgb(151, 192, 36); fill-opacity: 1; stroke: none; stroke-width: 0.9; stroke-linejoin: miter; stroke-miterlimit: 4; stroke-dasharray: none; stroke-opacity: 0.401316;" d="M 356.78125,519.875 C 338.24982,519.875 323.21876,532.38118 323.21875,547.81717 C 323.21875,548.86547 323.27113,549.91011 323.40625,550.92857 L 390.15625,550.92857 C 390.29137,549.91011 390.34375,548.86547 390.34375,547.81717 C 390.34375,532.38118 375.31268,519.87502 356.78125,519.875 z " id="path2170"/>
        <path style="opacity: 0.977778; fill: rgb(151, 192, 36); fill-opacity: 1; stroke: none; stroke-width: 0.9; stroke-linejoin: miter; stroke-miterlimit: 4; stroke-dasharray: none; stroke-opacity: 0.401316;" d="M 322.96875,553.0625 L 322.96875,603.32078 C 322.96875,607.41959 327.39653,610.71877 332.89448,610.71875 L 380.23498,610.71875 C 385.73292,610.71875 390.1607,607.41959 390.16071,603.32078 L 390.16071,553.0625 L 322.96875,553.0625 z " id="rect3158"/>
        <rect style="opacity: 0.977778; fill: rgb(151, 192, 36); fill-opacity: 1; stroke: none; stroke-width: 0.9; stroke-linejoin: miter; stroke-miterlimit: 4; stroke-dasharray: none; stroke-opacity: 0.401316;" id="rect3162" width="15.357142" height="37.857143" x="336.76315" y="597.04773" rx="9.7377472" ry="7.6109033"/>
        <rect ry="7.6109033" rx="9.7377472" y="597.04773" x="361.77332" height="37.857143" width="15.357142" id="rect3164" style="opacity: 0.977778; fill: rgb(151, 192, 36); fill-opacity: 1; stroke: none; stroke-width: 0.9; stroke-linejoin: miter; stroke-miterlimit: 4; stroke-dasharray: none; stroke-opacity: 0.401316;"/>
        <rect ry="7.6920147" rx="9.7377472" y="551.79077" x="393.03571" height="47.142857" width="15.357142" id="rect3169" style="opacity: 0.977778; fill: rgb(151, 192, 36); fill-opacity: 1; stroke: none; stroke-width: 0.9; stroke-linejoin: miter; stroke-miterlimit: 4; stroke-dasharray: none; stroke-opacity: 0.401316;"/>
        <rect style="opacity: 0.977778; fill: rgb(151, 192, 36); fill-opacity: 1; stroke: none; stroke-width: 0.9; stroke-linejoin: miter; stroke-miterlimit: 4; stroke-dasharray: none; stroke-opacity: 0.401316;" id="rect3171" width="15.357142" height="47.142857" x="305.03571" y="551.79077" rx="9.7377472" ry="7.6920147"/>
        <rect style="opacity: 0.977778; fill: rgb(151, 192, 36); fill-opacity: 1; stroke: none; stroke-width: 0.9; stroke-linejoin: miter; stroke-miterlimit: 4; stroke-dasharray: none; stroke-opacity: 0.401316;" id="rect3191" width="14.824304" height="2.6225123" x="613.59875" y="-68.508736" rx="1.4815128" ry="1.2636521" transform="matrix(0.453399, 0.891308, -0.84966, 0.527331, 0, 0)"/>
        <rect transform="matrix(-0.463044, 0.886335, 0.855858, 0.517211, 0, 0)" ry="1.254501" rx="1.4506518" y="572.20447" x="242.79608" height="2.6035209" width="14.515503" id="rect3193" style="opacity: 0.977778; fill: rgb(151, 192, 36); fill-opacity: 1; stroke: none; stroke-width: 0.9; stroke-linejoin: miter; stroke-miterlimit: 4; stroke-dasharray: none; stroke-opacity: 0.401316;"/>
        <path sodipodi:type="arc" style="opacity: 0.977778; fill: rgb(151, 192, 36); fill-opacity: 1; stroke: none; stroke-width: 0.9; stroke-linejoin: miter; stroke-miterlimit: 4; stroke-dasharray: none; stroke-opacity: 0.401316;" id="path3196" sodipodi:cx="341.96429" sodipodi:cy="536.11218" sodipodi:rx="3.0357144" sodipodi:ry="3.0357144" d="M 345.00001 536.11218 A 3.0357144 3.0357144 0 1 1  338.92858,536.11218 A 3.0357144 3.0357144 0 1 1  345.00001 536.11218 z" transform="translate(-0.571429, -0.714286)"/>
        <path transform="translate(30.3214, -0.714286)" d="M 345.00001 536.11218 A 3.0357144 3.0357144 0 1 1  338.92858,536.11218 A 3.0357144 3.0357144 0 1 1  345.00001 536.11218 z" sodipodi:ry="3.0357144" sodipodi:rx="3.0357144" sodipodi:cy="536.11218" sodipodi:cx="341.96429" id="path3198" style="opacity: 0.977778; fill: rgb(151, 192, 36); fill-opacity: 1; stroke: none; stroke-width: 0.9; stroke-linejoin: miter; stroke-miterlimit: 4; stroke-dasharray: none; stroke-opacity: 0.401316;" sodipodi:type="arc"/>
      </g>
      <path sodipodi:type="arc" style="opacity: 0.977778; fill: rgb(255, 255, 255); fill-opacity: 1; stroke: none; stroke-width: 0.9; stroke-linejoin: miter; stroke-miterlimit: 4; stroke-dasharray: none; stroke-opacity: 0.401316;" id="path3224" sodipodi:cx="341.96429" sodipodi:cy="536.11218" sodipodi:rx="3.0357144" sodipodi:ry="3.0357144" d="M 345.00001 536.11218 A 3.0357144 3.0357144 0 1 1  338.92858,536.11218 A 3.0357144 3.0357144 0 1 1  345.00001 536.11218 z" transform="translate(-0.57143, -0.714286)"/>
      <path transform="translate(30.3214, -0.714286)" d="M 345.00001 536.11218 A 3.0357144 3.0357144 0 1 1  338.92858,536.11218 A 3.0357144 3.0357144 0 1 1  345.00001 536.11218 z" sodipodi:ry="3.0357144" sodipodi:rx="3.0357144" sodipodi:cy="536.11218" sodipodi:cx="341.96429" id="path3226" style="opacity: 0.977778; fill: rgb(255, 255, 255); fill-opacity: 1; stroke: none; stroke-width: 0.9; stroke-linejoin: miter; stroke-miterlimit: 4; stroke-dasharray: none; stroke-opacity: 0.401316;" sodipodi:type="arc"/>
    </g>
  </g>
</svg>