<?xml version="1.0" encoding="UTF-8" standalone="no"?>
<!-- Created with Inkscape (http://www.inkscape.org/) -->

<svg
   xmlns:dc="http://purl.org/dc/elements/1.1/"
   xmlns:cc="http://creativecommons.org/ns#"
   xmlns:rdf="http://www.w3.org/1999/02/22-rdf-syntax-ns#"
   xmlns:svg="http://www.w3.org/2000/svg"
   xmlns="http://www.w3.org/2000/svg"
   xmlns:sodipodi="http://sodipodi.sourceforge.net/DTD/sodipodi-0.dtd"
   xmlns:inkscape="http://www.inkscape.org/namespaces/inkscape"
   width="210mm"
   height="297mm"
   id="svg2"
   version="1.1"
   inkscape:version="0.47 r22583"
   sodipodi:docname="logo_icon.svg">
  <defs
     id="defs4">
    <inkscape:perspective
       sodipodi:type="inkscape:persp3d"
       inkscape:vp_x="0 : 526.18109 : 1"
       inkscape:vp_y="0 : 1000 : 0"
       inkscape:vp_z="744.09448 : 526.18109 : 1"
       inkscape:persp3d-origin="372.04724 : 350.78739 : 1"
       id="perspective10" />
    <inkscape:perspective
       id="perspective2828"
       inkscape:persp3d-origin="0.5 : 0.33333333 : 1"
       inkscape:vp_z="1 : 0.5 : 1"
       inkscape:vp_y="0 : 1000 : 0"
       inkscape:vp_x="0 : 0.5 : 1"
       sodipodi:type="inkscape:persp3d" />
    <inkscape:perspective
       sodipodi:type="inkscape:persp3d"
       inkscape:vp_x="0 : 0.5 : 1"
       inkscape:vp_y="0 : 1000 : 0"
       inkscape:vp_z="1 : 0.5 : 1"
       inkscape:persp3d-origin="0.5 : 0.33333333 : 1"
       id="perspective3694" />
    <inkscape:perspective
       sodipodi:type="inkscape:persp3d"
       inkscape:vp_x="0 : 0.5 : 1"
       inkscape:vp_y="0 : 1000 : 0"
       inkscape:vp_z="1 : 0.5 : 1"
       inkscape:persp3d-origin="0.5 : 0.33333333 : 1"
       id="perspective2835" />
    <inkscape:perspective
       id="perspective10-9"
       inkscape:persp3d-origin="372.04724 : 350.78739 : 1"
       inkscape:vp_z="744.09448 : 526.18109 : 1"
       inkscape:vp_y="0 : 1000 : 0"
       inkscape:vp_x="0 : 526.18109 : 1"
       sodipodi:type="inkscape:persp3d" />
  </defs>
  <sodipodi:namedview
     id="base"
     pagecolor="#ffffff"
     bordercolor="#666666"
     borderopacity="1.0"
     inkscape:pageopacity="0.0"
     inkscape:pageshadow="2"
     inkscape:zoom="0.70710678"
     inkscape:cx="264.94451"
     inkscape:cy="450.90075"
     inkscape:document-units="px"
     inkscape:current-layer="layer1"
     showgrid="false"
     inkscape:window-width="1280"
     inkscape:window-height="738"
     inkscape:window-x="1672"
     inkscape:window-y="410"
     inkscape:window-maximized="1" />
  <metadata
     id="metadata7">
    <rdf:RDF>
      <cc:Work
         rdf:about="">
        <dc:format>image/svg+xml</dc:format>
        <dc:type
           rdf:resource="http://purl.org/dc/dcmitype/StillImage" />
        <dc:title />
      </cc:Work>
    </rdf:RDF>
  </metadata>
  <g
     inkscape:label="Ebene 1"
     inkscape:groupmode="layer"
     id="layer1">
    <g
       style="font-size:71.45741272px;font-style:normal;font-variant:normal;font-weight:bold;font-stretch:normal;text-align:start;line-height:125%;writing-mode:lr-tb;text-anchor:start;fill:#000000;fill-opacity:1;stroke:none;font-family:Calibri;-inkscape-font-specification:Calibri Bold"
       id="text2816-2">
      <path
         d="m 245.81623,703.85935 c -3e-5,0.32565 -0.11633,0.58152 -0.34891,0.76761 -0.23264,0.18608 -0.599,0.31983 -1.09908,0.40125 -0.50014,0.0814 -1.23867,0.12212 -2.2156,0.12212 -1.04676,0 -1.80855,-0.0407 -2.28538,-0.12212 -0.47687,-0.0814 -0.81415,-0.21517 -1.01185,-0.40125 -0.19774,-0.18609 -0.2966,-0.44196 -0.29657,-0.76761 l 0,-2.47729 c -1.27937,1.3724 -2.73899,2.4424 -4.37886,3.21001 -1.63991,0.7676 -3.46007,1.15141 -5.46049,1.15141 -1.65154,0 -3.16931,-0.21516 -4.55332,-0.64549 -1.38403,-0.43033 -2.58196,-1.07 -3.5938,-1.91902 -1.01186,-0.84902 -1.79691,-1.90158 -2.35517,-3.15767 -0.55826,-1.25608 -0.83739,-2.72151 -0.83739,-4.3963 0,-1.81434 0.35473,-3.39026 1.06419,-4.72778 0.70945,-1.33748 1.76782,-2.44237 3.1751,-3.31467 1.40728,-0.87226 3.15766,-1.51775 5.25115,-1.93647 2.09346,-0.41867 4.52422,-0.62802 7.29228,-0.62804 l 3.03555,0 0,-1.88413 c -3e-5,-0.97694 -0.0989,-1.83177 -0.29658,-2.56451 -0.19774,-0.7327 -0.52339,-1.34329 -0.97696,-1.8318 -0.4536,-0.48845 -1.05839,-0.84899 -1.81434,-1.08163 -0.756,-0.23258 -1.69225,-0.34888 -2.80876,-0.34891 -1.46545,3e-5 -2.77387,0.16285 -3.92527,0.48848 -1.15142,0.32568 -2.16909,0.68622 -3.05299,1.08163 -0.88392,0.39546 -1.62245,0.756 -2.2156,1.08163 -0.59316,0.32567 -1.07582,0.4885 -1.44799,0.48848 -0.25587,2e-5 -0.48266,-0.0814 -0.68038,-0.24424 -0.19772,-0.1628 -0.36055,-0.39541 -0.48848,-0.69783 -0.12793,-0.30237 -0.22679,-0.67454 -0.29657,-1.11652 -0.0698,-0.44193 -0.10468,-0.93041 -0.10468,-1.46544 0,-0.72106 0.0581,-1.29095 0.17446,-1.70967 0.1163,-0.41867 0.33728,-0.79666 0.66294,-1.13397 0.32564,-0.33725 0.89553,-0.70942 1.70967,-1.11652 0.81412,-0.40703 1.76782,-0.78502 2.86109,-1.13397 1.09325,-0.34888 2.28537,-0.63382 3.57636,-0.85484 1.29096,-0.22094 2.62265,-0.33143 3.99505,-0.33146 2.44238,3e-5 4.53004,0.23845 6.26299,0.71527 1.73291,0.47688 3.15764,1.2096 4.27419,2.19815 1.11649,0.98862 1.93062,2.26215 2.44239,3.8206 0.51171,1.55851 0.76758,3.40774 0.76761,5.54772 z m -8.61815,-13.32848 -3.34957,0 c -1.41893,10e-6 -2.62849,0.10468 -3.6287,0.31402 -1.00023,0.20936 -1.81436,0.52338 -2.44239,0.94206 -0.62805,0.41871 -1.08746,0.92464 -1.3782,1.51778 -0.29078,0.59316 -0.43616,1.27354 -0.43615,2.04114 -10e-6,1.30261 0.41287,2.32609 1.23865,3.07043 0.82574,0.74436 1.97134,1.11653 3.43679,1.11653 1.23281,0 2.36678,-0.31402 3.4019,-0.94207 1.03509,-0.62804 2.08765,-1.54684 3.15767,-2.75641 z"
         style="font-size:71.45741272px;font-style:normal;font-variant:normal;font-weight:bold;font-stretch:normal;text-align:start;line-height:125%;writing-mode:lr-tb;text-anchor:start;fill:#6c6a69;fill-opacity:1;font-family:Calibri;-inkscape-font-specification:Calibri Bold"
         id="path2876" />
      <path
         d="m 284.33624,703.75467 c -3e-5,0.23261 -0.0698,0.43615 -0.20935,0.6106 -0.1396,0.17446 -0.3722,0.31984 -0.69782,0.43614 -0.32569,0.11631 -0.77346,0.20354 -1.34332,0.26169 -0.56992,0.0582 -1.27356,0.0872 -2.11092,0.0872 -0.86068,0 -1.57596,-0.0291 -2.14582,-0.0872 -0.56992,-0.0581 -1.01769,-0.14538 -1.34331,-0.26169 -0.32568,-0.1163 -0.55829,-0.26168 -0.69783,-0.43614 -0.13959,-0.17445 -0.20937,-0.37799 -0.20935,-0.6106 l 0,-17.75967 c -2e-5,-1.51194 -0.11051,-2.69824 -0.33147,-3.55892 -0.221,-0.86063 -0.54084,-1.59916 -0.95951,-2.2156 -0.41872,-0.61639 -0.95953,-1.09323 -1.62244,-1.43054 -0.66296,-0.33726 -1.43638,-0.5059 -2.32028,-0.50593 -1.11654,3e-5 -2.24469,0.4071 -3.38445,1.2212 -1.1398,0.81416 -2.32611,2.00046 -3.55892,3.55891 l 0,20.69055 c -1e-5,0.23261 -0.0698,0.43615 -0.20935,0.6106 -0.13957,0.17446 -0.378,0.31984 -0.71527,0.43614 -0.33729,0.11631 -0.78506,0.20354 -1.34331,0.26169 -0.55827,0.0582 -1.26773,0.0872 -2.12837,0.0872 -0.86066,0 -1.57012,-0.0291 -2.12837,-0.0872 -0.55827,-0.0581 -1.00604,-0.14538 -1.34332,-0.26169 -0.33729,-0.1163 -0.57571,-0.26168 -0.71527,-0.43614 -0.13957,-0.17445 -0.20935,-0.37799 -0.20935,-0.6106 l 0,-31.12305 c 0,-0.23257 0.0582,-0.43611 0.17446,-0.6106 0.1163,-0.17442 0.32565,-0.3198 0.62804,-0.43614 0.30239,-0.11627 0.69201,-0.2035 1.16886,-0.26168 0.47684,-0.0581 1.07581,-0.0872 1.7969,-0.0872 0.74434,3e-5 1.36076,0.0291 1.84924,0.0872 0.48847,0.0582 0.86646,0.14541 1.13397,0.26168 0.26749,0.11634 0.45939,0.26172 0.57571,0.43614 0.11629,0.17449 0.17444,0.37803 0.17445,0.6106 l 0,3.59381 c 1.7213,-1.86084 3.47167,-3.25649 5.25115,-4.18696 1.77944,-0.9304 3.63449,-1.39562 5.56516,-1.39565 2.11672,3e-5 3.90199,0.34894 5.35582,1.04674 1.45377,0.69785 2.62845,1.64573 3.52402,2.84364 0.89551,1.19796 1.541,2.59943 1.93647,4.2044 0.3954,1.60503 0.59312,3.53568 0.59315,5.79196 z"
         style="font-size:71.45741272px;font-style:normal;font-variant:normal;font-weight:bold;font-stretch:normal;text-align:start;line-height:125%;writing-mode:lr-tb;text-anchor:start;fill:#6c6a69;fill-opacity:1;font-family:Calibri;-inkscape-font-specification:Calibri Bold"
         id="path2878" />
      <path
         d="m 322.50735,703.75467 c -4e-5,0.25587 -0.0582,0.47104 -0.17446,0.64549 -0.11634,0.17446 -0.31406,0.31984 -0.59315,0.43615 -0.27917,0.1163 -0.65716,0.19771 -1.13397,0.24423 -0.47688,0.0465 -1.06422,0.0698 -1.76201,0.0698 -0.74438,0 -1.34916,-0.0233 -1.81435,-0.0698 -0.46525,-0.0465 -0.84324,-0.12793 -1.13397,-0.24423 -0.29079,-0.11631 -0.50013,-0.26169 -0.62804,-0.43615 -0.12796,-0.17445 -0.19193,-0.38962 -0.19191,-0.64549 l 0,-3.45424 c -1.60502,1.72131 -3.28562,3.05881 -5.04179,4.01251 -1.75622,0.95369 -3.70431,1.43054 -5.8443,1.43054 -2.37262,0 -4.37887,-0.4594 -6.01875,-1.37821 -1.6399,-0.9188 -2.9774,-2.15744 -4.0125,-3.71592 -1.03511,-1.55848 -1.78527,-3.37864 -2.25049,-5.46049 -0.46522,-2.08184 -0.69783,-4.27418 -0.69782,-6.57702 -10e-6,-2.76802 0.29657,-5.25693 0.88972,-7.46674 0.59315,-2.20975 1.45962,-4.09388 2.59941,-5.65239 1.13977,-1.55845 2.55868,-2.75638 4.25674,-3.59381 1.69803,-0.83735 3.65194,-1.25605 5.86174,-1.25608 1.74455,3e-5 3.32628,0.35476 4.74522,1.06418 1.41889,0.70949 2.82617,1.75041 4.22185,3.12277 l 0,-16.8525 c -3e-5,-0.23256 0.0639,-0.44191 0.1919,-0.62804 0.12791,-0.18604 0.36052,-0.34305 0.69782,-0.47104 0.33726,-0.12788 0.78503,-0.22674 1.34332,-0.29657 0.55823,-0.0697 1.26769,-0.10463 2.12837,-0.10468 0.86062,5e-5 1.57008,0.0349 2.12837,0.10468 0.55823,0.0698 1.00019,0.16869 1.32587,0.29657 0.32562,0.12799 0.55823,0.285 0.69783,0.47104 0.13953,0.18613 0.20931,0.39548 0.20935,0.62804 z m -8.72283,-20.79522 c -1.25611,-1.58172 -2.45986,-2.79128 -3.61125,-3.6287 -1.15144,-0.83736 -2.35519,-1.25606 -3.61126,-1.25608 -1.1398,2e-5 -2.12257,0.28497 -2.94831,0.85483 -0.82578,0.56992 -1.48871,1.33171 -1.98881,2.28538 -0.50012,0.95372 -0.87229,2.01791 -1.11652,3.19256 -0.24425,1.17469 -0.36637,2.37844 -0.36636,3.61125 -1e-5,1.30263 0.10466,2.57034 0.31402,3.80315 0.20934,1.23284 0.55244,2.33192 1.0293,3.29723 0.47683,0.96534 1.11069,1.73876 1.90157,2.32028 0.79086,0.58153 1.79108,0.87229 3.00066,0.87228 0.60476,10e-6 1.1921,-0.0872 1.76201,-0.26169 0.56987,-0.17445 1.15139,-0.45939 1.74456,-0.85483 0.59314,-0.39543 1.20373,-0.91298 1.8318,-1.55267 0.62802,-0.63966 1.31421,-1.42471 2.05859,-2.35516 z"
         style="font-size:71.45741272px;font-style:normal;font-variant:normal;font-weight:bold;font-stretch:normal;text-align:start;line-height:125%;writing-mode:lr-tb;text-anchor:start;fill:#6c6a69;fill-opacity:1;font-family:Calibri;-inkscape-font-specification:Calibri Bold"
         id="path2880" />
      <path
         d="m 360.12018,687.28597 c -3e-5,1.07002 -0.23845,1.86089 -0.71527,2.37261 -0.47688,0.51176 -1.134,0.76763 -1.97136,0.76761 l -18.94598,0 c -1e-5,1.32589 0.157,2.52963 0.47103,3.61125 0.31401,1.08164 0.81412,2.00045 1.50033,2.75642 0.68618,0.75598 1.57009,1.33169 2.65174,1.72712 1.08161,0.39544 2.3784,0.59316 3.89038,0.59315 1.5352,10e-6 2.88432,-0.11048 4.04739,-0.33147 1.16302,-0.22097 2.16905,-0.46521 3.0181,-0.73272 0.84899,-0.26749 1.55264,-0.51173 2.11092,-0.73271 0.55824,-0.22097 1.01182,-0.33146 1.36077,-0.33147 0.20931,10e-6 0.38377,0.0407 0.52337,0.12212 0.13953,0.0814 0.25583,0.2268 0.34891,0.43614 0.093,0.20936 0.15698,0.50593 0.1919,0.88973 0.0349,0.38381 0.0523,0.86647 0.0523,1.44799 -3e-5,0.51174 -0.0117,0.94788 -0.0349,1.30842 -0.0233,0.36055 -0.0582,0.66876 -0.10468,0.92462 -0.0465,0.25587 -0.11633,0.47104 -0.20934,0.64549 -0.0931,0.17446 -0.2152,0.3431 -0.36636,0.50593 -0.15123,0.16282 -0.56411,0.3838 -1.23865,0.66293 -0.67459,0.27913 -1.53524,0.55245 -2.58195,0.81995 -1.04677,0.2675 -2.2447,0.50011 -3.59381,0.69782 -1.34915,0.19772 -2.79132,0.29658 -4.32652,0.29658 -2.76806,0 -5.19301,-0.34891 -7.27484,-1.04674 -2.08186,-0.69783 -3.82061,-1.75619 -5.21625,-3.17511 -1.39566,-1.41891 -2.43658,-3.20999 -3.12277,-5.37326 -0.6862,-2.16325 -1.0293,-4.69869 -1.0293,-7.60631 0,-2.76802 0.36054,-5.26275 1.08163,-7.48419 0.72109,-2.22138 1.76782,-4.10551 3.14022,-5.65239 1.37238,-1.54682 3.04135,-2.7273 5.0069,-3.54147 1.96553,-0.81409 4.18113,-1.22116 6.6468,-1.22119 2.6052,3e-5 4.83242,0.38383 6.68169,1.15141 1.84921,0.76764 3.36698,1.83183 4.55331,3.19256 1.18628,1.36079 2.05856,2.9716 2.61685,4.83244 0.55823,1.8609 0.83736,3.88459 0.83739,6.07109 z m -8.51348,-2.51217 c 0.0698,-2.46563 -0.42453,-4.4021 -1.48288,-5.8094 -1.05839,-1.40726 -2.69247,-2.1109 -4.90223,-2.11093 -1.11654,3e-5 -2.08768,0.20938 -2.91342,0.62804 -0.82578,0.41873 -1.51197,0.9828 -2.05859,1.69223 -0.54664,0.70948 -0.96534,1.54688 -1.25609,2.51218 -0.29077,0.96535 -0.45941,1.99464 -0.50592,3.08788 z"
         style="font-size:71.45741272px;font-style:normal;font-variant:normal;font-weight:bold;font-stretch:normal;text-align:start;line-height:125%;writing-mode:lr-tb;text-anchor:start;fill:#6ac335;fill-opacity:1;font-family:Calibri;-inkscape-font-specification:Calibri Bold"
         id="path2882" />
      <path
         d="m 397.10497,703.75467 c -4e-5,0.23261 -0.0698,0.43615 -0.20935,0.6106 -0.1396,0.17446 -0.37221,0.31984 -0.69783,0.43614 -0.32568,0.11631 -0.77345,0.20354 -1.34331,0.26169 -0.56992,0.0582 -1.27357,0.0872 -2.11093,0.0872 -0.86068,0 -1.57595,-0.0291 -2.14581,-0.0872 -0.56992,-0.0581 -1.01769,-0.14538 -1.34332,-0.26169 -0.32568,-0.1163 -0.55828,-0.26168 -0.69782,-0.43614 -0.13959,-0.17445 -0.20938,-0.37799 -0.20935,-0.6106 l 0,-17.75967 c -3e-5,-1.51194 -0.11052,-2.69824 -0.33147,-3.55892 -0.221,-0.86063 -0.54084,-1.59916 -0.95951,-2.2156 -0.41872,-0.61639 -0.95953,-1.09323 -1.62245,-1.43054 -0.66295,-0.33726 -1.43638,-0.5059 -2.32027,-0.50593 -1.11654,3e-5 -2.24469,0.4071 -3.38446,1.2212 -1.1398,0.81416 -2.3261,2.00046 -3.55891,3.55891 l 0,20.69055 c -1e-5,0.23261 -0.0698,0.43615 -0.20935,0.6106 -0.13958,0.17446 -0.378,0.31984 -0.71527,0.43614 -0.3373,0.11631 -0.78507,0.20354 -1.34332,0.26169 -0.55827,0.0582 -1.26772,0.0872 -2.12837,0.0872 -0.86066,0 -1.57011,-0.0291 -2.12837,-0.0872 -0.55826,-0.0581 -1.00604,-0.14538 -1.34331,-0.26169 -0.33729,-0.1163 -0.57571,-0.26168 -0.71527,-0.43614 -0.13957,-0.17445 -0.20936,-0.37799 -0.20935,-0.6106 l 0,-31.12305 c -10e-6,-0.23257 0.0582,-0.43611 0.17445,-0.6106 0.1163,-0.17442 0.32565,-0.3198 0.62805,-0.43614 0.30238,-0.11627 0.692,-0.2035 1.16886,-0.26168 0.47684,-0.0581 1.07581,-0.0872 1.7969,-0.0872 0.74434,3e-5 1.36075,0.0291 1.84924,0.0872 0.48847,0.0582 0.86646,0.14541 1.13397,0.26168 0.26749,0.11634 0.45939,0.26172 0.5757,0.43614 0.1163,0.17449 0.17445,0.37803 0.17446,0.6106 l 0,3.59381 c 1.72129,-1.86084 3.47167,-3.25649 5.25114,-4.18696 1.77944,-0.9304 3.63449,-1.39562 5.56517,-1.39565 2.11671,3e-5 3.90198,0.34894 5.35581,1.04674 1.45378,0.69785 2.62845,1.64573 3.52403,2.84364 0.89551,1.19796 1.541,2.59943 1.93647,4.2044 0.3954,1.60503 0.59311,3.53568 0.59315,5.79196 z"
         style="font-size:71.45741272px;font-style:normal;font-variant:normal;font-weight:bold;font-stretch:normal;text-align:start;line-height:125%;writing-mode:lr-tb;text-anchor:start;fill:#6ac335;fill-opacity:1;font-family:Calibri;-inkscape-font-specification:Calibri Bold"
         id="path2884" />
      <path
         d="m 433.81063,674.79488 c -3e-5,1.11655 -0.12796,1.94231 -0.3838,2.47729 -0.2559,0.53502 -0.56993,0.80252 -0.94207,0.8025 l -3.66359,0 c 0.51172,0.55828 0.87807,1.19214 1.09908,1.90157 0.22095,0.70948 0.33144,1.44802 0.33147,2.2156 -3e-5,1.81437 -0.30242,3.42519 -0.90718,4.83245 -0.60481,1.4073 -1.47127,2.5936 -2.5994,3.55891 -1.12818,0.96534 -2.48894,1.69806 -4.08228,2.19816 -1.59339,0.50012 -3.36703,0.75017 -5.32093,0.75016 -1.00023,10e-6 -1.95393,-0.12211 -2.86109,-0.36636 -0.90718,-0.24423 -1.60501,-0.52917 -2.09347,-0.85484 -0.27915,0.30241 -0.5292,0.66295 -0.75017,1.08163 -0.22099,0.41871 -0.33148,0.88393 -0.33147,1.39566 -10e-6,0.67457 0.29657,1.22702 0.88973,1.65733 0.59314,0.43034 1.42472,0.66876 2.49473,0.71528 l 7.57142,0.27913 c 1.7678,0.0698 3.34372,0.31984 4.72777,0.75016 1.384,0.43033 2.54704,1.03511 3.48913,1.81435 0.94204,0.77924 1.66312,1.71549 2.16326,2.80875 0.50008,1.09326 0.75013,2.33772 0.75017,3.73337 -4e-5,1.53521 -0.33732,2.9832 -1.01185,4.34397 -0.6746,1.36075 -1.68644,2.54124 -3.03555,3.54147 -1.34915,1.0002 -3.04138,1.79107 -5.07668,2.37261 -2.03535,0.58151 -4.41377,0.87227 -7.13528,0.87228 -2.65175,-10e-6 -4.91387,-0.20936 -6.78636,-0.62804 -1.8725,-0.41871 -3.40772,-1.00023 -4.60565,-1.74457 -1.19794,-0.74436 -2.07022,-1.63409 -2.61685,-2.66919 -0.54663,-1.03511 -0.81995,-2.16908 -0.81994,-3.4019 -1e-5,-0.76761 0.0988,-1.50033 0.29657,-2.19815 0.19772,-0.69783 0.48848,-1.36658 0.87228,-2.00625 0.38381,-0.63968 0.85484,-1.25027 1.4131,-1.8318 0.55826,-0.58152 1.19793,-1.13978 1.91902,-1.67478 -1.00022,-0.535 -1.77364,-1.2619 -2.32027,-2.18071 -0.54663,-0.9188 -0.81995,-1.92483 -0.81994,-3.0181 -10e-6,-1.37238 0.31402,-2.62265 0.94206,-3.75081 0.62804,-1.12814 1.44217,-2.1458 2.44239,-3.05299 -0.81413,-0.81412 -1.46544,-1.79107 -1.95391,-2.93087 -0.48848,-1.13977 -0.73272,-2.55868 -0.73272,-4.25674 0,-1.81433 0.31984,-3.43677 0.95951,-4.86734 0.63967,-1.43052 1.5294,-2.64008 2.66919,-3.6287 1.13977,-0.98855 2.50053,-1.74453 4.08228,-2.26793 1.58173,-0.52334 3.32629,-0.78502 5.2337,-0.78506 0.97694,4e-5 1.91319,0.0582 2.80875,0.17446 0.89553,0.11634 1.7271,0.27916 2.49473,0.48848 l 9.87424,0 c 0.39541,3e-5 0.71524,0.2559 0.95951,0.76761 0.24421,0.51177 0.36633,1.37242 0.36636,2.58195 z m -11.26989,7.36207 c -2e-5,-1.67476 -0.46524,-2.97737 -1.39565,-3.90783 -0.93046,-0.9304 -2.2447,-1.39562 -3.94272,-1.39565 -0.86067,3e-5 -1.61665,0.14541 -2.26794,0.43614 -0.65132,0.29079 -1.19213,0.68622 -1.62245,1.18631 -0.43033,0.50013 -0.75017,1.08165 -0.95951,1.74456 -0.20935,0.66296 -0.31403,1.35497 -0.31402,2.07604 -1e-5,1.58176 0.46521,2.83203 1.39565,3.75081 0.93043,0.91882 2.2214,1.37823 3.87294,1.37821 0.8839,2e-5 1.65151,-0.13955 2.30283,-0.4187 0.65128,-0.27911 1.1921,-0.66291 1.62244,-1.15141 0.43031,-0.48846 0.75596,-1.05253 0.97696,-1.69223 0.22096,-0.63965 0.33145,-1.3084 0.33147,-2.00625 z m 2.05859,24.84262 c -3e-5,-1.04674 -0.41872,-1.84924 -1.25609,-2.4075 -0.83741,-0.55826 -1.98883,-0.86066 -3.45424,-0.90718 l -6.24555,-0.17445 c -0.60479,0.44195 -1.08745,0.86646 -1.44799,1.27353 -0.36055,0.40706 -0.65131,0.79668 -0.87228,1.16886 -0.22099,0.37217 -0.36637,0.73271 -0.43614,1.08163 -0.0698,0.34891 -0.10468,0.70945 -0.10468,1.08163 0,1.16304 0.58733,2.04695 1.76202,2.65174 1.17466,0.60477 2.83199,0.90717 4.97201,0.90717 1.32585,0 2.44237,-0.13375 3.34956,-0.40125 0.90716,-0.2675 1.63988,-0.62223 2.19816,-1.06418 0.55824,-0.44196 0.95367,-0.93626 1.1863,-1.48288 0.23259,-0.54664 0.34889,-1.12234 0.34892,-1.72712 z"
         style="font-size:71.45741272px;font-style:normal;font-variant:normal;font-weight:bold;font-stretch:normal;text-align:start;line-height:125%;writing-mode:lr-tb;text-anchor:start;fill:#6ac335;fill-opacity:1;font-family:Calibri;-inkscape-font-specification:Calibri Bold"
         id="path2886" />
      <path
         d="m 448.46498,703.75467 c -1e-5,0.23261 -0.0698,0.43615 -0.20935,0.6106 -0.13958,0.17446 -0.378,0.31984 -0.71527,0.43614 -0.3373,0.11631 -0.78507,0.20354 -1.34332,0.26169 -0.55827,0.0582 -1.26772,0.0872 -2.12837,0.0872 -0.86066,0 -1.57011,-0.0291 -2.12837,-0.0872 -0.55826,-0.0581 -1.00604,-0.14538 -1.34331,-0.26169 -0.33729,-0.1163 -0.57571,-0.26168 -0.71527,-0.43614 -0.13957,-0.17445 -0.20936,-0.37799 -0.20935,-0.6106 l 0,-31.05327 c -10e-6,-0.23257 0.0698,-0.4361 0.20935,-0.61059 0.13956,-0.17443 0.37798,-0.32562 0.71527,-0.45359 0.33727,-0.1279 0.78505,-0.22676 1.34331,-0.29658 0.55826,-0.0697 1.26771,-0.10464 2.12837,-0.10467 0.86065,3e-5 1.5701,0.0349 2.12837,0.10467 0.55825,0.0698 1.00602,0.16868 1.34332,0.29658 0.33727,0.12797 0.57569,0.27916 0.71527,0.45359 0.13955,0.17449 0.20934,0.37802 0.20935,0.61059 z m 0.66293,-41.66023 c -10e-6,1.76787 -0.36055,2.98907 -1.08163,3.66359 -0.7211,0.67461 -2.0586,1.01189 -4.0125,1.01185 -1.97718,4e-5 -3.30886,-0.32561 -3.99505,-0.97696 -0.6862,-0.65126 -1.0293,-1.82593 -1.0293,-3.52402 0,-1.76778 0.35473,-2.99479 1.06419,-3.68103 0.70945,-0.68615 2.05276,-1.02925 4.02994,-1.0293 1.95391,5e-5 3.27978,0.33152 3.97761,0.99441 0.69782,0.66298 1.04673,1.84346 1.04674,3.54146 z"
         style="font-size:71.45741272px;font-style:normal;font-variant:normal;font-weight:bold;font-stretch:normal;text-align:start;line-height:125%;writing-mode:lr-tb;text-anchor:start;fill:#6ac335;fill-opacity:1;font-family:Calibri;-inkscape-font-specification:Calibri Bold"
         id="path2888" />
      <path
         d="m 486.985,703.75467 c -3e-5,0.23261 -0.0698,0.43615 -0.20934,0.6106 -0.1396,0.17446 -0.37221,0.31984 -0.69783,0.43614 -0.32569,0.11631 -0.77346,0.20354 -1.34332,0.26169 -0.56992,0.0582 -1.27356,0.0872 -2.11092,0.0872 -0.86068,0 -1.57595,-0.0291 -2.14582,-0.0872 -0.56992,-0.0581 -1.01769,-0.14538 -1.34331,-0.26169 -0.32568,-0.1163 -0.55829,-0.26168 -0.69783,-0.43614 -0.13959,-0.17445 -0.20937,-0.37799 -0.20935,-0.6106 l 0,-17.75967 c -2e-5,-1.51194 -0.11051,-2.69824 -0.33146,-3.55892 -0.22101,-0.86063 -0.54084,-1.59916 -0.95952,-2.2156 -0.41871,-0.61639 -0.95953,-1.09323 -1.62244,-1.43054 -0.66296,-0.33726 -1.43638,-0.5059 -2.32027,-0.50593 -1.11654,3e-5 -2.2447,0.4071 -3.38446,1.2212 -1.1398,0.81416 -2.3261,2.00046 -3.55892,3.55891 l 0,20.69055 c -10e-6,0.23261 -0.0698,0.43615 -0.20934,0.6106 -0.13958,0.17446 -0.37801,0.31984 -0.71528,0.43614 -0.33729,0.11631 -0.78506,0.20354 -1.34331,0.26169 -0.55827,0.0582 -1.26773,0.0872 -2.12837,0.0872 -0.86066,0 -1.57012,-0.0291 -2.12837,-0.0872 -0.55827,-0.0581 -1.00604,-0.14538 -1.34332,-0.26169 -0.33728,-0.1163 -0.57571,-0.26168 -0.71527,-0.43614 -0.13957,-0.17445 -0.20935,-0.37799 -0.20935,-0.6106 l 0,-31.12305 c 0,-0.23257 0.0581,-0.43611 0.17446,-0.6106 0.1163,-0.17442 0.32565,-0.3198 0.62804,-0.43614 0.30239,-0.11627 0.69201,-0.2035 1.16886,-0.26168 0.47684,-0.0581 1.07581,-0.0872 1.79691,-0.0872 0.74433,3e-5 1.36075,0.0291 1.84923,0.0872 0.48847,0.0582 0.86646,0.14541 1.13397,0.26168 0.26749,0.11634 0.45939,0.26172 0.57571,0.43614 0.11629,0.17449 0.17444,0.37803 0.17446,0.6106 l 0,3.59381 c 1.72129,-1.86084 3.47167,-3.25649 5.25114,-4.18696 1.77944,-0.9304 3.63449,-1.39562 5.56516,-1.39565 2.11672,3e-5 3.90199,0.34894 5.35582,1.04674 1.45378,0.69785 2.62845,1.64573 3.52402,2.84364 0.89551,1.19796 1.541,2.59943 1.93647,4.2044 0.3954,1.60503 0.59312,3.53568 0.59315,5.79196 z"
         style="font-size:71.45741272px;font-style:normal;font-variant:normal;font-weight:bold;font-stretch:normal;text-align:start;line-height:125%;writing-mode:lr-tb;text-anchor:start;fill:#6ac335;fill-opacity:1;font-family:Calibri;-inkscape-font-specification:Calibri Bold"
         id="path2890" />
      <path
         d="m 524.38848,687.28597 c -3e-5,1.07002 -0.23846,1.86089 -0.71527,2.37261 -0.47688,0.51176 -1.134,0.76763 -1.97136,0.76761 l -18.94599,0 c -10e-6,1.32589 0.157,2.52963 0.47104,3.61125 0.31401,1.08164 0.81411,2.00045 1.50032,2.75642 0.68618,0.75598 1.5701,1.33169 2.65174,1.72712 1.08162,0.39544 2.37841,0.59316 3.89038,0.59315 1.5352,10e-6 2.88433,-0.11048 4.0474,-0.33147 1.16302,-0.22097 2.16905,-0.46521 3.0181,-0.73272 0.84899,-0.26749 1.55263,-0.51173 2.11092,-0.73271 0.55823,-0.22097 1.01182,-0.33146 1.36076,-0.33147 0.20932,10e-6 0.38378,0.0407 0.52337,0.12212 0.13954,0.0814 0.25584,0.2268 0.34891,0.43614 0.093,0.20936 0.15698,0.50593 0.19191,0.88973 0.0349,0.38381 0.0523,0.86647 0.0523,1.44799 -3e-5,0.51174 -0.0117,0.94788 -0.0349,1.30842 -0.0233,0.36055 -0.0582,0.66876 -0.10467,0.92462 -0.0466,0.25587 -0.11634,0.47104 -0.20935,0.64549 -0.0931,0.17446 -0.21519,0.3431 -0.36636,0.50593 -0.15122,0.16282 -0.56411,0.3838 -1.23864,0.66293 -0.67459,0.27913 -1.53525,0.55245 -2.58196,0.81995 -1.04676,0.2675 -2.2447,0.50011 -3.5938,0.69782 -1.34916,0.19772 -2.79133,0.29658 -4.32653,0.29658 -2.76806,0 -5.193,-0.34891 -7.27483,-1.04674 -2.08186,-0.69783 -3.82061,-1.75619 -5.21626,-3.17511 -1.39565,-1.41891 -2.43658,-3.20999 -3.12277,-5.37326 -0.6862,-2.16325 -1.0293,-4.69869 -1.02929,-7.60631 -10e-6,-2.76802 0.36054,-5.26275 1.08163,-7.48419 0.72108,-2.22138 1.76782,-4.10551 3.14022,-5.65239 1.37238,-1.54682 3.04135,-2.7273 5.0069,-3.54147 1.96553,-0.81409 4.18113,-1.22116 6.6468,-1.22119 2.60519,3e-5 4.83242,0.38383 6.68168,1.15141 1.84921,0.76764 3.36699,1.83183 4.55332,3.19256 1.18627,1.36079 2.05855,2.9716 2.61685,4.83244 0.55823,1.8609 0.83736,3.88459 0.83739,6.07109 z M 515.875,684.7738 c 0.0698,-2.46563 -0.42454,-4.4021 -1.48288,-5.8094 -1.05839,-1.40726 -2.69247,-2.1109 -4.90223,-2.11093 -1.11654,3e-5 -2.08768,0.20938 -2.91343,0.62804 -0.82577,0.41873 -1.51197,0.9828 -2.05858,1.69223 -0.54665,0.70948 -0.96534,1.54688 -1.25609,2.51218 -0.29077,0.96535 -0.45942,1.99464 -0.50593,3.08788 z"
         style="font-size:71.45741272px;font-style:normal;font-variant:normal;font-weight:bold;font-stretch:normal;text-align:start;line-height:125%;writing-mode:lr-tb;text-anchor:start;fill:#6ac335;fill-opacity:1;font-family:Calibri;-inkscape-font-specification:Calibri Bold"
         id="path2892" />
    </g>
    <text
       xml:space="preserve"
       style="font-size:18.35328293px;font-style:normal;font-variant:normal;font-weight:bold;font-stretch:normal;text-align:start;line-height:125%;writing-mode:lr-tb;text-anchor:start;fill:#6c6a69;fill-opacity:1;stroke:none;font-family:Calibri;-inkscape-font-specification:Calibri Bold"
       x="481.43198"
       y="729.04187"
       id="text3596"
       sodipodi:linespacing="125%"><tspan
         sodipodi:role="line"
         id="tspan3598"
         x="481.43198"
         y="729.04187">... coming 2010</tspan></text>
    <g
       id="g3228"
       style="fill:#6ac335;fill-opacity:1"
       transform="matrix(0.25578178,0,0,0.25578178,350.60414,583.4747)" />
    <rect
       ry="1.9674772"
       rx="2.4907384"
       y="-800.58453"
       x="-267.11624"
       height="12.058284"
       width="3.9280772"
       id="rect3171"
       style="opacity:0.977778;fill:#6ac335;fill-opacity:1;stroke:none"
       inkscape:transform-center-y="-2.7500007"
       transform="matrix(-0.97835396,0.20693847,-0.20693847,-0.97835396,0,0)"
       inkscape:transform-center-x="2.7500017" />
    <g
       id="g3846"
       transform="matrix(0.99233233,0.12359833,-0.12359833,0.99233233,248.32948,-234.34253)">
      <path
         style="opacity:0.977778;fill:#6ac335;fill-opacity:1;stroke:none"
         d="m 308.82473,929.08937 c -3.97273,-2.58554 -8.93995,-2.00166 -11.09361,1.30748 -0.14626,0.22473 -0.28078,0.45599 -0.39392,0.69317 l 14.30973,9.3131 c 0.17107,-0.19948 0.32805,-0.41612 0.47431,-0.64085 2.15366,-3.30914 0.67621,-8.08735 -3.29651,-10.6729 z"
         id="path2170" />
      <path
         style="opacity:0.977778;fill:#6ac335;fill-opacity:1;stroke:none"
         d="m 296.94568,931.48645 -7.01214,10.77427 c -0.57187,0.87869 -0.083,2.20374 1.09568,2.97082 l 10.14876,6.60504 c 1.17864,0.76709 2.58816,0.67759 3.16004,-0.2011 l 7.01214,-10.77427 -14.40448,-9.37476 z"
         id="rect3158" />
      <rect
         style="opacity:0.977778;fill:#6ac335;fill-opacity:1;stroke:none"
         id="rect3162"
         width="3.9280772"
         height="9.6831675"
         x="760.50781"
         y="629.97986"
         rx="2.4907384"
         ry="1.9467304"
         transform="matrix(0.83812831,0.54547314,-0.54547314,0.83812831,0,0)" />
      <rect
         ry="1.9467304"
         rx="2.4907384"
         y="629.97986"
         x="766.90497"
         height="9.6831675"
         width="3.9280772"
         id="rect3164"
         style="opacity:0.977778;fill:#6ac335;fill-opacity:1;stroke:none"
         transform="matrix(0.83812831,0.54547314,-0.54547314,0.83812831,0,0)" />
      <rect
         inkscape:transform-center-y="3.3738607"
         inkscape:transform-center-x="-1.1956068"
         ry="1.9674772"
         rx="2.4907384"
         y="991.72083"
         x="-20.155535"
         height="12.058284"
         width="3.9280772"
         id="rect3169"
         style="opacity:0.977778;fill:#6ac335;fill-opacity:1;stroke:none"
         transform="matrix(0.94344914,-0.3315173,0.3315173,0.94344914,0,0)" />
      <rect
         style="opacity:0.977778;fill:#6ac335;fill-opacity:1;stroke:none"
         id="rect3191"
         width="3.7917879"
         height="0.67079091"
         x="920.82745"
         y="-403.5925"
         rx="0.3789441"
         ry="0.32321918"
         transform="matrix(-0.10617801,0.99434714,-0.99976894,-0.02149567,0,0)" />
      <rect
         transform="matrix(-0.87156245,0.4902845,0.43519407,0.90033667,0,0)"
         ry="0.32087851"
         rx="0.37105021"
         y="966.6568"
         x="121.89864"
         height="0.66593325"
         width="3.7128003"
         id="rect3193"
         style="opacity:0.977778;fill:#6ac335;fill-opacity:1;stroke:none" />
      <path
         sodipodi:type="arc"
         style="opacity:0.977778;fill:#6ac335;fill-opacity:1;stroke:none"
         id="path3196"
         sodipodi:cx="341.96429"
         sodipodi:cy="536.11218"
         sodipodi:rx="3.0357144"
         sodipodi:ry="3.0357144"
         d="m 345.00001,536.11218 c 0,1.67658 -1.35914,3.03572 -3.03572,3.03572 -1.67657,0 -3.03571,-1.35914 -3.03571,-3.03572 0,-1.67658 1.35914,-3.03571 3.03571,-3.03571 1.67658,0 3.03572,1.35913 3.03572,3.03571 z"
         transform="matrix(0.21437795,0.13952209,-0.13952209,0.21437795,304.84989,767.62792)" />
      <path
         transform="matrix(0.21437795,0.13952209,-0.13952209,0.21437795,311.47263,771.93815)"
         d="m 345.00001,536.11218 c 0,1.67658 -1.35914,3.03572 -3.03572,3.03572 -1.67657,0 -3.03571,-1.35914 -3.03571,-3.03572 0,-1.67658 1.35914,-3.03571 3.03571,-3.03571 1.67658,0 3.03572,1.35913 3.03572,3.03571 z"
         sodipodi:ry="3.0357144"
         sodipodi:rx="3.0357144"
         sodipodi:cy="536.11218"
         sodipodi:cx="341.96429"
         id="path3198"
         style="opacity:0.977778;fill:#6ac335;fill-opacity:1;stroke:none"
         sodipodi:type="arc" />
      <path
         sodipodi:type="arc"
         style="opacity:0.977778;fill:#ffffff;fill-opacity:1;stroke:none"
         id="path3224"
         sodipodi:cx="341.96429"
         sodipodi:cy="536.11218"
         sodipodi:rx="3.0357144"
         sodipodi:ry="3.0357144"
         d="m 345.00001,536.11218 c 0,1.67658 -1.35914,3.03572 -3.03572,3.03572 -1.67657,0 -3.03571,-1.35914 -3.03571,-3.03572 0,-1.67658 1.35914,-3.03571 3.03571,-3.03571 1.67658,0 3.03572,1.35913 3.03572,3.03571 z"
         transform="matrix(0.21437795,0.13952209,-0.13952209,0.21437795,304.8499,767.62791)" />
      <path
         transform="matrix(0.21437795,0.13952209,-0.13952209,0.21437795,311.47264,771.93814)"
         d="m 345.00001,536.11218 c 0,1.67658 -1.35914,3.03572 -3.03572,3.03572 -1.67657,0 -3.03571,-1.35914 -3.03571,-3.03572 0,-1.67658 1.35914,-3.03571 3.03571,-3.03571 1.67658,0 3.03572,1.35913 3.03572,3.03571 z"
         sodipodi:ry="3.0357144"
         sodipodi:rx="3.0357144"
         sodipodi:cy="536.11218"
         sodipodi:cx="341.96429"
         id="path3226"
         style="opacity:0.977778;fill:#ffffff;fill-opacity:1;stroke:none"
         sodipodi:type="arc" />
    </g>
    <g
       id="g2901"
       transform="translate(91.216775,12.020815)">
      <g
         transform="matrix(1,0,0,0.81066654,-59.25841,138.76905)"
         style="font-size:144px;font-style:normal;font-variant:normal;font-weight:normal;font-stretch:normal;text-align:start;line-height:100%;writing-mode:lr-tb;text-anchor:start;fill:#6c6a69;fill-opacity:1;stroke:none;font-family:DroidLogo;-inkscape-font-specification:DroidLogo"
         id="g4104">
        <path
           d="m 295.41428,567.10931 0,39.86719 -28.26563,0 c -13.54688,0 -20.32031,-7.7578 -20.32031,-23.27344 l 0,-0.0703 c 0,-15.56246 6.58593,-23.3437 19.75781,-23.34375 l 11.60156,0 0,11.74219 -11.67187,0 c -7.07814,3e-5 -10.6172,3.86722 -10.61719,11.60156 -1e-5,7.73439 3.74998,11.60158 11.25,11.60156 l 19.125,0 0,-14.69531 0,-17.71874 c -4e-5,-8.24995 -2.92973,-12.37494 -8.78906,-12.375 l -25.10156,0 -0.0703,-11.8125 25.17188,0.0703 c 7.26558,0.0469 12.30464,3.00007 15.11719,8.85938 3.78914,9.34342 3.21116,18.33377 2.81248,19.54686 z"
           style="fill:#6c6a69;fill-opacity:1"
           id="path4106"
           sodipodi:nodetypes="cccccccccscccccccccc" />
      </g>
      <g
         transform="matrix(1,0,0,0.81066654,56.603554,40.62451)"
         id="text4112"
         style="font-size:144px;font-style:normal;font-variant:normal;font-weight:normal;font-stretch:normal;text-align:start;line-height:125%;writing-mode:lr-tb;text-anchor:start;fill:#6ac335;fill-opacity:1;stroke:none;font-family:DroidLogo;-inkscape-font-specification:DroidLogo">
        <path
           sodipodi:nodetypes="cscscccccczcczcccsscccc"
           id="path4117"
           d="m 207.67378,689.33773 c 3.14054,4e-5 4.71085,-2.46089 4.71094,-7.38281 -9e-5,-2.57808 -0.46884,-4.42964 -1.40625,-5.55469 -2.43758,-2.90619 -6.96102,-4.35932 -13.57032,-4.35937 -9.98443,5e-5 -15.72661,5.43755 -17.22656,16.3125 -0.70612,4.26682 -0.95272,8.34984 0,11.95312 1.5937,10.87502 7.99213,16.31251 19.19531,16.3125 l 13.85157,0 0,11.74219 -13.92188,0 c -8.06256,0 -15.24745,-1.63654 -19.125,-6.11719 -3.87755,-4.48065 -9.5625,-13.73772 -9.5625,-27.98435 l 0,-0.0703 c 0,-6.70858 2.8637,-20.2025 6.75001,-25.38283 3.88631,-5.18033 11.10932,-8.57805 19.96875,-8.57812 l 0.14063,0 c 9.37492,7e-5 16.33585,3.30475 20.88281,9.91406 2.62491,3.79693 3.93741,8.00396 3.9375,12.62109 -9e-5,4.61723 -1.42978,8.63676 -4.28906,12.0586 -2.85946,3.4219 -6.93759,5.15628 -12.23438,5.20312 l -15.11719,0.0703 0,-10.89843 17.01562,0.14061 z" />
      </g>
    </g>
    <g
       style="font-size:144px;font-style:normal;font-variant:normal;font-weight:normal;font-stretch:normal;text-align:start;line-height:100%;writing-mode:lr-tb;text-anchor:start;fill:#6c6a69;fill-opacity:1;stroke:none;font-family:DroidLogo;-inkscape-font-specification:DroidLogo"
       id="g4123"
       transform="matrix(1,0,0,0.7930734,0,-28.549697)">
      <path
         d="m 295.41428,567.10931 0,39.86719 -28.26563,0 c -13.54688,0 -20.32031,-7.7578 -20.32031,-23.27344 l 0,-0.0703 c 0,-15.56246 6.58593,-23.3437 19.75781,-23.34375 l 11.60156,0 0,11.74219 -11.67187,0 c -7.07814,3e-5 -10.6172,3.86722 -10.61719,11.60156 -1e-5,7.73439 3.74998,11.60158 11.25,11.60156 l 19.125,0 0,-14.69531 0,-17.71874 c -4e-5,-8.24995 -2.92973,-12.37494 -8.78906,-12.375 l -25.10156,0 -0.0703,-11.8125 25.17188,0.0703 c 7.26558,0.0469 12.30464,3.00007 15.11719,8.85938 3.78914,8.92144 2.81248,13.15691 2.81248,19.54686 z"
         style="fill:#6c6a69;fill-opacity:1"
         id="path4125"
         sodipodi:nodetypes="cccccccccscccccccccc" />
    </g>
    <g
       transform="matrix(-1,0,0,-0.7930734,581.85562,880.00254)"
       id="g4127"
       style="font-size:144px;font-style:normal;font-variant:normal;font-weight:normal;font-stretch:normal;text-align:start;line-height:100%;writing-mode:lr-tb;text-anchor:start;fill:#6ac335;fill-opacity:1;stroke:none;font-family:DroidLogo;-inkscape-font-specification:DroidLogo">
      <path
         sodipodi:nodetypes="cccccccccscccccccccc"
         id="path4129"
         style="fill:#6ac335;fill-opacity:1"
         d="m 295.41428,567.10931 0,39.86719 -28.26563,0 c -13.54688,0 -20.32031,-7.7578 -20.32031,-23.27344 l 0,-0.0703 c 0,-15.56246 6.58593,-23.3437 19.75781,-23.34375 l 11.60156,0 0,11.74219 -11.67187,0 c -7.07814,3e-5 -10.6172,3.86722 -10.61719,11.60156 -1e-5,7.73439 3.74998,11.60158 11.25,11.60156 l 19.125,0 0,-14.69531 0,-17.71874 c -4e-5,-8.24995 -2.92973,-12.37494 -8.78906,-12.375 l -25.10156,0 -0.0703,-11.8125 25.17188,0.0703 c 7.26558,0.0469 12.30464,3.00007 15.11719,8.85938 3.78914,8.92144 2.81248,13.15691 2.81248,19.54686 z" />
    </g>
  </g>
</svg>
